<svg width="640" height="640" viewBox="0 0 640 640" xmlns="http://www.w3.org/2000/svg"><title>Buienradar</title><g fill="none" fill-rule="evenodd"><g opacity=".763" fill="#FFAB40"><path d="M196.474 584.53c33.438 15.04 70.436 23.442 109.426 23.442 148.468 0 268.836-121.248 268.836-270.835 0-48.488-12.695-93.953-34.846-133.317L196.474 584.53zM442.07 103.605c-39.945-23.71-86.424-37.33-136.144-37.33-148.468 0-268.837 121.25-268.837 270.862 0 33.958 6.24 66.418 17.582 96.39l387.4-329.922z"/></g><path d="M149.065 560.955l454.382-529.95L68.88 480.784c-15.802 10.437-26.32 28.392-26.32 48.783 0 32.22 25.896 58.283 57.82 58.283 14.502 0 27.73-5.407 37.875-14.318 4.17-3.64 7.808-7.894 10.81-12.577z" fill-opacity=".264" fill="#F6A623"/></g></svg>