<svg width="640" height="640" viewBox="0 0 640 640" xmlns="http://www.w3.org/2000/svg" xmlns:xlink="http://www.w3.org/1999/xlink"><title>Homey Devices</title><defs><path d="M.5.79c24 105.825 203.5 134.454 297.2 134.848 97.3 0 260.1-27.64 296.3-131.294 0 4.442-.5 8.884-.5 13.425-41.2 97.335-199.5 125.963-295.4 125.963C207.6 143.24 38.5 114.71 1.4 19.645.5 13.327.5 7.503.5.79" id="a"/></defs><g fill="none" fill-rule="evenodd" opacity=".897"><path d="M199.9 587.723c0-1.777 0-3.554-.5-5.33-16.3-7.108-31.7-15.203-46.1-24.976-4.1 1.777-7.2 4.047-10.4 6.712-5.9 5.824-10 14.314-10 23.198 0 8.885 3.6 17.375 10 23.2 6.3 5.823 14.5 9.87 23.5 9.87s17.6-3.553 23.5-9.87c5.9-6.32 10-13.427 10-22.805zm90.9 18.263c1.4 2.665 3.6 5.33 5.9 7.6 5.9 5.826 14.5 9.873 23.5 9.873s17.6-3.555 23.5-9.873c2.3-2.27 4.1-4.936 5.9-7.6-9.5.887-19.5 1.38-29.4 1.38-9.9 0-19.9-.493-29.4-1.38zm149.7-23.2c-.5 1.778-.5 3.555-.5 5.332 0 8.885 3.6 17.374 10 23.2 6.3 5.823 14.5 9.87 23.5 9.87s17.6-3.553 23.5-9.87c5.9-5.826 10-14.315 10-23.2s-3.6-17.374-10-23.2c-2.7-2.664-6.3-5.33-10.4-6.712-14.4 8.984-29.8 17.473-46.1 24.58zm-5.4 4.937v-3.16c-25.3 10.268-52.5 17.375-80.5 20.534-1.8 4.443-4.5 8.49-8.1 11.65-6.8 6.712-16.3 11.154-27.1 11.154-10.4 0-19.9-4.046-27.1-11.154-3.2-3.16-6.3-7.108-8.1-11.65-28-3.158-55.2-10.265-80.5-20.532v3.16c0 10.266-4.1 19.644-11.3 26.752-6.8 6.712-16.3 11.155-27.1 11.155s-19.9-4.047-27.1-11.154c-6.8-6.713-11.3-16.09-11.3-26.753 0-10.267 4.1-19.645 11.3-26.752 2.7-2.665 5.9-4.935 9-6.712-14.9-10.267-28.9-21.916-42.1-34.354C52.4 466.2 18.5 392.164 18.5 309.93c0-82.23 33.9-156.763 88.2-210.268 54.7-54 129.8-87.563 213.5-87.563 83.2 0 158.8 33.464 213 87.068 54.7 54 88.2 128.136 88.2 210.27 0 82.133-33.9 156.763-88.2 210.268-12.7 12.538-26.7 24.088-42.1 34.354 3.2 1.777 6.3 4.048 9 6.713 6.8 6.713 11.3 16.09 11.3 26.753 0 10.66-4.1 19.645-11.3 26.752-6.8 6.713-16.3 11.155-27.1 11.155-10.9 0-19.9-4.047-27.1-11.155-7.2-6.91-10.8-15.893-10.8-26.555zM616.5 309.93c0-80.85-33-154.098-86.8-207.208-53.4-53.11-127.6-85.687-209.4-85.687-81.8 0-156.1 32.577-209.9 85.687-53.8 53.11-86.9 125.964-86.9 207.21 0 81.244 33 154.097 86.8 207.208 32.1 31.688 71.5 55.775 114.4 70.09 29.9 10.266 61.5 15.597 94.5 15.597h1.8c78.3 0 153.3-30.8 209-85.687 53.5-53.11 86.5-126.36 86.5-207.21z" fill="#FFAB40"/><g transform="translate(23 309.14)"><mask id="b" fill="#fff"><use xlink:href="#a"/></mask><path fill="#FFAB40" mask="url(#b)" d="M.5.79H594v142.845H.5z"/></g></g></svg>