<svg xmlns="http://www.w3.org/2000/svg" width="256" height="85" viewBox="0 0 256 85">
  <g fill="none" fill-rule="evenodd" transform="translate(7 12)">
    <g stroke="rgba(0, 0, 0, 0.75)" stroke-linecap="square">
      <path d="M28.5 54.5L1.5 54.5M1.5 54.5L1.5 1.5M1.5 1.5L241.5 1.5M241.5 1.5L241.5 54.5M241.5 54.5L214.5 54.5"/>
    </g>
    <path fill="rgba(0, 0, 0, 0.75)" d="M9.1875,38 L9.1875,10.7988281 L12.5273438,10.7988281 L12.5273438,20.5585938 C14.0859453,18.7525951 16.0527225,17.8496094 18.4277344,17.8496094 C19.8873771,17.8496094 21.1552681,18.1372042 22.2314453,18.7124023 C23.3076226,19.2876005 24.0776344,20.0823517 24.5415039,21.0966797 C25.0053734,22.1110077 25.2373047,23.5829982 25.2373047,25.5126953 L25.2373047,38 L21.8974609,38 L21.8974609,25.5126953 C21.8974609,23.8427651 21.5356481,22.6274452 20.8120117,21.8666992 C20.0883753,21.1059532 19.0647853,20.7255859 17.7412109,20.7255859 C16.7516227,20.7255859 15.8208051,20.9822565 14.9487305,21.4956055 C14.0766558,22.0089544 13.45508,22.7047482 13.0839844,23.5830078 C12.7128888,24.4612674 12.5273438,25.6734949 12.5273438,27.2197266 L12.5273438,38 L9.1875,38 Z M29.078125,28.1474609 C29.078125,24.4983542 30.0924378,21.7955817 32.1210938,20.0390625 C33.8157637,18.5794198 35.8814982,17.8496094 38.3183594,17.8496094 C41.0273573,17.8496094 43.2415279,18.7371331 44.9609375,20.512207 C46.6803471,22.287281 47.5400391,24.7395677 47.5400391,27.8691406 C47.5400391,30.4049606 47.1596718,32.3995696 46.3989258,33.8530273 C45.6381798,35.3064851 44.5310945,36.4352173 43.0776367,37.2392578 C41.6241789,38.0432983 40.037769,38.4453125 38.3183594,38.4453125 C35.559882,38.4453125 33.3302494,37.5608812 31.6293945,35.7919922 C29.9285397,34.0231031 29.078125,31.4749515 29.078125,28.1474609 Z M32.5107422,28.1474609 C32.5107422,30.6709111 33.0611924,32.5603778 34.1621094,33.815918 C35.2630263,35.0714581 36.6484292,35.6992188 38.3183594,35.6992188 C39.9759197,35.6992188 41.3551377,35.0683657 42.4560547,33.8066406 C43.5569717,32.5449156 44.1074219,30.6214322 44.1074219,28.0361328 C44.1074219,25.5992717 43.5538792,23.7530987 42.4467773,22.4975586 C41.3396755,21.2420185 39.9635499,20.6142578 38.3183594,20.6142578 C36.6484292,20.6142578 35.2630263,21.238926 34.1621094,22.4882812 C33.0611924,23.7376365 32.5107422,25.6240108 32.5107422,28.1474609 Z M51.4550781,38 L51.4550781,18.2949219 L54.4423828,18.2949219 L54.4423828,21.0595703 C55.0608755,20.0947217 55.8834584,19.3185251 56.9101562,18.730957 C57.9368541,18.143389 59.1057877,17.8496094 60.4169922,17.8496094 C61.8766349,17.8496094 63.0734003,18.1526662 64.0073242,18.7587891 C64.9412482,19.3649119 65.599933,20.2122341 65.9833984,21.3007812 C67.542,18.9999885 69.5706255,17.8496094 72.0693359,17.8496094 C74.0237728,17.8496094 75.5266875,18.3907823 76.578125,19.4731445 C77.6295625,20.5555067 78.1552734,22.2223195 78.1552734,24.4736328 L78.1552734,38 L74.8339844,38 L74.8339844,25.5869141 C74.8339844,24.2509699 74.7257498,23.2892282 74.5092773,22.7016602 C74.2928049,22.1140921 73.9000679,21.6409523 73.3310547,21.2822266 C72.7620414,20.9235008 72.0940794,20.7441406 71.3271484,20.7441406 C69.9417248,20.7441406 68.7913457,21.2049108 67.8759766,22.1264648 C66.9606074,23.0480189 66.5029297,24.5231018 66.5029297,26.5517578 L66.5029297,38 L63.1630859,38 L63.1630859,25.1972656 C63.1630859,23.7128832 62.8909532,22.5996131 62.3466797,21.8574219 C61.8024061,21.1152307 60.91179,20.7441406 59.6748047,20.7441406 C58.7346958,20.7441406 57.8657266,20.991534 57.0678711,21.4863281 C56.2700155,21.9811223 55.6917336,22.7047478 55.3330078,23.6572266 C54.9742821,24.6097053 54.7949219,25.9827384 54.7949219,27.7763672 L54.7949219,38 L51.4550781,38 Z M96.5986328,31.6542969 L100.049805,32.0810547 C99.5055311,34.0973408 98.4974032,35.6621038 97.0253906,36.7753906 C95.5533781,37.8886774 93.6731885,38.4453125 91.3847656,38.4453125 C88.5025898,38.4453125 86.2172936,37.5577888 84.5288086,35.7827148 C82.8403236,34.0076409 81.9960937,31.5182452 81.9960937,28.3144531 C81.9960937,24.9993324 82.8496008,22.4264414 84.5566406,20.5957031 C86.2636804,18.7649648 88.477851,17.8496094 91.1992187,17.8496094 C93.8339975,17.8496094 95.9863198,18.7464103 97.65625,20.5400391 C99.3261802,22.3336678 100.161133,24.8570801 100.161133,28.1103516 C100.161133,28.3082692 100.154948,28.6051413 100.142578,29.0009766 L85.4472656,29.0009766 C85.5709642,31.1657009 86.1832627,32.8232364 87.2841797,33.9736328 C88.3850967,35.1240292 89.7581298,35.6992188 91.4033203,35.6992188 C92.6279358,35.6992188 93.6731728,35.3776074 94.5390625,34.734375 C95.4049522,34.0911426 96.0914688,33.0644602 96.5986328,31.6542969 Z M85.6328125,26.2548828 L96.6357422,26.2548828 C96.4873039,24.5973224 96.0667352,23.3541708 95.3740234,22.5253906 C94.310216,21.2389259 92.9309981,20.5957031 91.2363281,20.5957031 C89.7024663,20.5957031 88.4129284,21.1090443 87.3676758,22.1357422 C86.3224232,23.16244 85.7441412,24.5354732 85.6328125,26.2548828 Z M104.094727,45.5888672 L103.723633,42.453125 C104.453454,42.6510427 105.090492,42.75 105.634766,42.75 C106.376957,42.75 106.970701,42.6263033 107.416016,42.3789062 C107.86133,42.1315092 108.226236,41.7851585 108.510742,41.3398438 C108.72103,41.0058577 109.061196,40.17709 109.53125,38.8535156 C109.593099,38.6679678 109.692057,38.3958351 109.828125,38.0371094 L102.350586,18.2949219 L105.950195,18.2949219 L110.050781,29.7060547 C110.582685,31.1533275 111.058917,32.6747967 111.479492,34.2705078 C111.862958,32.736646 112.320635,31.2399162 112.852539,29.7802734 L117.064453,18.2949219 L120.404297,18.2949219 L112.908203,38.3339844 C112.104163,40.4987087 111.479494,41.9892537 111.03418,42.8056641 C110.440427,43.906581 109.760095,44.7137019 108.993164,45.2270508 C108.226233,45.7403997 107.310878,45.9970703 106.24707,45.9970703 C105.603838,45.9970703 104.886397,45.861004 104.094727,45.5888672 Z M123.632812,10.7988281 L136.120117,10.7988281 C138.581718,10.7988281 140.570142,11.1328092 142.085449,11.8007812 C143.600756,12.4687533 144.853185,13.4274026 145.842773,14.6767578 C146.832362,15.926113 147.549802,17.379549 147.995117,19.0371094 C148.440432,20.6946697 148.663086,22.4511626 148.663086,24.3066406 C148.663086,27.2135562 148.332197,29.4679282 147.67041,31.0698242 C147.008623,32.6717202 146.090175,34.0138292 144.915039,35.0961914 C143.739903,36.1785536 142.478197,36.8990867 141.129883,37.2578125 C139.286775,37.7526066 137.616869,38 136.120117,38 L123.632812,38 L123.632812,10.7988281 Z M132.038086,16.9589844 L132.038086,31.8212891 L134.097656,31.8212891 C135.854175,31.8212891 137.103512,31.6264668 137.845703,31.2368164 C138.587894,30.847166 139.169269,30.1668343 139.589844,29.1958008 C140.010419,28.2247673 140.220703,26.650727 140.220703,24.4736328 C140.220703,21.5914569 139.750656,19.6184949 138.810547,18.5546875 C137.870438,17.4908801 136.31186,16.9589844 134.134766,16.9589844 L132.038086,16.9589844 Z M168.182617,33.5097656 L158.608398,33.5097656 L157.291016,38 L148.700195,38 L158.923828,10.7988281 L168.089844,10.7988281 L178.313477,38 L169.518555,38 L168.182617,33.5097656 Z M166.419922,27.6279297 L163.414062,17.8496094 L160.426758,27.6279297 L166.419922,27.6279297 Z M179.538086,29.0009766 L187.535156,28.5 C187.708334,29.7988346 188.06087,30.7884081 188.592773,31.46875 C189.458663,32.569667 190.69563,33.1201172 192.303711,33.1201172 C193.503587,33.1201172 194.428219,32.8387072 195.077637,32.2758789 C195.727054,31.7130506 196.051758,31.0605506 196.051758,30.3183594 C196.051758,29.6132777 195.742516,28.9824247 195.124023,28.4257813 C194.505531,27.8691378 193.070649,27.343427 190.819336,26.8486328 C187.13312,26.0198526 184.504565,24.9189522 182.933594,23.5458984 C181.350252,22.1728447 180.558594,20.4225367 180.558594,18.2949219 C180.558594,16.8971284 180.9637,15.5766664 181.773926,14.3334961 C182.584151,13.0903258 183.802563,12.113122 185.429199,11.4018555 C187.055835,10.6905889 189.285468,10.3349609 192.118164,10.3349609 C195.594093,10.3349609 198.244294,10.9812761 200.068848,12.2739258 C201.893401,13.5665755 202.978839,15.6230328 203.325195,18.4433594 L195.402344,18.9072266 C195.192056,17.6826111 194.749841,16.791995 194.075684,16.2353516 C193.401527,15.6787082 192.470709,15.4003906 191.283203,15.4003906 C190.305985,15.4003906 189.569989,15.6075826 189.075195,16.0219727 C188.580401,16.4363627 188.333008,16.9404267 188.333008,17.5341797 C188.333008,17.9671246 188.537107,18.3567691 188.945312,18.703125 C189.341148,19.0618508 190.281243,19.3958318 191.765625,19.7050781 C195.439471,20.4967488 198.071118,21.2976848 199.660645,22.1079102 C201.250171,22.9181356 202.406735,23.9231711 203.130371,25.1230469 C203.854008,26.3229227 204.21582,27.6650316 204.21582,29.1494141 C204.21582,30.8935634 203.733403,32.5016202 202.768555,33.9736328 C201.803706,35.4456454 200.455412,36.5620079 198.723633,37.3227539 C196.991853,38.0834999 194.808607,38.4638672 192.173828,38.4638672 C187.547503,38.4638672 184.343759,37.5732511 182.5625,35.7919922 C180.781241,34.0107333 179.773113,31.747084 179.538086,29.0009766 Z M208.483398,10.7988281 L216.888672,10.7988281 L216.888672,20.3173828 L226.073242,20.3173828 L226.073242,10.7988281 L234.515625,10.7988281 L234.515625,38 L226.073242,38 L226.073242,26.9970703 L216.888672,26.9970703 L216.888672,38 L208.483398,38 L208.483398,10.7988281 Z"/>
    <path fill="rgba(0, 0, 0, 0.75)" d="M31.5234375,58 L31.5234375,50.1259766 L32.5654297,50.1259766 L32.5654297,53.359375 L36.6582031,53.359375 L36.6582031,50.1259766 L37.7001953,50.1259766 L37.7001953,58 L36.6582031,58 L36.6582031,54.2885742 L32.5654297,54.2885742 L32.5654297,58 L31.5234375,58 Z M39.1181641,54.1650391 C39.1181641,52.8580664 39.469072,51.8348833 40.1708984,51.095459 C40.8727249,50.3560347 41.7786403,49.9863281 42.8886719,49.9863281 C43.6155635,49.9863281 44.2708304,50.1599918 44.8544922,50.5073242 C45.438154,50.8546567 45.8830551,51.3389455 46.189209,51.9602051 C46.4953629,52.5814647 46.6484375,53.2859661 46.6484375,54.0737305 C46.6484375,54.8722371 46.4873063,55.5865854 46.1650391,56.2167969 C45.8427718,56.8470084 45.3862334,57.3241357 44.7954102,57.6481934 C44.2045869,57.972251 43.5672235,58.1342773 42.8833008,58.1342773 C42.1420861,58.1342773 41.4796579,57.9552427 40.8959961,57.597168 C40.3123343,57.2390933 39.8701187,56.7503286 39.5693359,56.1308594 C39.2685532,55.5113901 39.1181641,54.8561232 39.1181641,54.1650391 Z M40.1923828,54.1811523 C40.1923828,55.1300503 40.4475072,55.8775201 40.9577637,56.423584 C41.4680201,56.9696479 42.1080691,57.2426758 42.8779297,57.2426758 C43.6621133,57.2426758 44.3075333,56.9669624 44.814209,56.4155273 C45.3208847,55.8640923 45.5742188,55.0817108 45.5742188,54.0683594 C45.5742188,53.4274056 45.4659028,52.8679223 45.2492676,52.3898926 C45.0326324,51.9118628 44.715741,51.5412611 44.298584,51.2780762 C43.881427,51.0148913 43.4132513,50.8833008 42.894043,50.8833008 C42.1564091,50.8833008 41.5217312,51.1366348 40.9899902,51.6433105 C40.4582493,52.1499863 40.1923828,52.9959251 40.1923828,54.1811523 Z M47.9589844,58 L47.9589844,50.1259766 L49.5273438,50.1259766 L51.3911133,55.7011719 C51.5629891,56.2203802 51.6883134,56.6088854 51.7670898,56.8666992 C51.8566085,56.5802395 51.9962556,56.159508 52.1860352,55.6044922 L54.0712891,50.1259766 L55.4731445,50.1259766 L55.4731445,58 L54.46875,58 L54.46875,51.409668 L52.1806641,58 L51.2407227,58 L48.9633789,51.296875 L48.9633789,58 L47.9589844,58 Z M57.1757812,58 L57.1757812,50.1259766 L62.8691406,50.1259766 L62.8691406,51.0551758 L58.2177734,51.0551758 L58.2177734,53.4667969 L62.5737305,53.4667969 L62.5737305,54.390625 L58.2177734,54.390625 L58.2177734,57.0708008 L63.0517578,57.0708008 L63.0517578,58 L57.1757812,58 Z M63.9916992,55.6367188 L63.9916992,54.6645508 L66.9619141,54.6645508 L66.9619141,55.6367188 L63.9916992,55.6367188 Z M67.2895508,58 L70.3134766,50.1259766 L71.4360352,50.1259766 L74.6586914,58 L73.4716797,58 L72.5532227,55.6152344 L69.2607422,55.6152344 L68.3959961,58 L67.2895508,58 Z M69.5615234,54.7666016 L72.230957,54.7666016 L71.4091797,52.5859375 C71.1585274,51.9234993 70.9723313,51.3792339 70.8505859,50.953125 C70.750325,51.4580103 70.6088876,51.9593074 70.4262695,52.4570312 L69.5615234,54.7666016 Z M80.6582031,50.1259766 L81.7001953,50.1259766 L81.7001953,54.675293 C81.7001953,55.4666381 81.610678,56.0950498 81.4316406,56.5605469 C81.2526033,57.026044 80.9294457,57.4047023 80.4621582,57.6965332 C79.9948707,57.9883641 79.381677,58.1342773 78.6225586,58.1342773 C77.8849247,58.1342773 77.2815779,58.0071627 76.8125,57.7529297 C76.3434221,57.4986966 76.0086273,57.1307804 75.8081055,56.6491699 C75.6075836,56.1675594 75.5073242,55.509607 75.5073242,54.675293 L75.5073242,50.1259766 L76.5493164,50.1259766 L76.5493164,54.6699219 C76.5493164,55.3538446 76.6128737,55.8578272 76.7399902,56.1818848 C76.8671068,56.5059424 77.0855291,56.7556957 77.3952637,56.9311523 C77.7049983,57.106609 78.0836566,57.1943359 78.53125,57.1943359 C79.2975299,57.1943359 79.8435856,57.0206723 80.1694336,56.6733398 C80.4952816,56.3260074 80.6582031,55.6582081 80.6582031,54.6699219 L80.6582031,50.1259766 Z M85.4384766,58 L85.4384766,51.0551758 L82.8442383,51.0551758 L82.8442383,50.1259766 L89.0854492,50.1259766 L89.0854492,51.0551758 L86.4804688,51.0551758 L86.4804688,58 L85.4384766,58 Z M89.6386719,54.1650391 C89.6386719,52.8580664 89.9895798,51.8348833 90.6914062,51.095459 C91.3932327,50.3560347 92.2991481,49.9863281 93.4091797,49.9863281 C94.1360713,49.9863281 94.7913382,50.1599918 95.375,50.5073242 C95.9586618,50.8546567 96.4035629,51.3389455 96.7097168,51.9602051 C97.0158707,52.5814647 97.1689453,53.2859661 97.1689453,54.0737305 C97.1689453,54.8722371 97.0078141,55.5865854 96.6855469,56.2167969 C96.3632796,56.8470084 95.9067412,57.3241357 95.315918,57.6481934 C94.7250947,57.972251 94.0877313,58.1342773 93.4038086,58.1342773 C92.662594,58.1342773 92.0001657,57.9552427 91.4165039,57.597168 C90.8328421,57.2390933 90.3906265,56.7503286 90.0898438,56.1308594 C89.789061,55.5113901 89.6386719,54.8561232 89.6386719,54.1650391 Z M90.7128906,54.1811523 C90.7128906,55.1300503 90.968015,55.8775201 91.4782715,56.423584 C91.9885279,56.9696479 92.6285769,57.2426758 93.3984375,57.2426758 C94.1826211,57.2426758 94.8280411,56.9669624 95.3347168,56.4155273 C95.8413925,55.8640923 96.0947266,55.0817108 96.0947266,54.0683594 C96.0947266,53.4274056 95.9864106,52.8679223 95.7697754,52.3898926 C95.5531402,51.9118628 95.2362488,51.5412611 94.8190918,51.2780762 C94.4019348,51.0148913 93.9337591,50.8833008 93.4145508,50.8833008 C92.6769169,50.8833008 92.042239,51.1366348 91.510498,51.6433105 C90.9787571,52.1499863 90.7128906,52.9959251 90.7128906,54.1811523 Z M98.4794922,58 L98.4794922,50.1259766 L100.047852,50.1259766 L101.911621,55.7011719 C102.083497,56.2203802 102.208821,56.6088854 102.287598,56.8666992 C102.377116,56.5802395 102.516763,56.159508 102.706543,55.6044922 L104.591797,50.1259766 L105.993652,50.1259766 L105.993652,58 L104.989258,58 L104.989258,51.409668 L102.701172,58 L101.76123,58 L99.4838867,51.296875 L99.4838867,58 L98.4794922,58 Z M106.810059,58 L109.833984,50.1259766 L110.956543,50.1259766 L114.179199,58 L112.992188,58 L112.07373,55.6152344 L108.78125,55.6152344 L107.916504,58 L106.810059,58 Z M109.082031,54.7666016 L111.751465,54.7666016 L110.929688,52.5859375 C110.679035,51.9234993 110.492839,51.3792339 110.371094,50.953125 C110.270833,51.4580103 110.129395,51.9593074 109.946777,52.4570312 L109.082031,54.7666016 Z M116.19873,58 L116.19873,51.0551758 L113.604492,51.0551758 L113.604492,50.1259766 L119.845703,50.1259766 L119.845703,51.0551758 L117.240723,51.0551758 L117.240723,58 L116.19873,58 Z M121.091797,58 L121.091797,50.1259766 L122.133789,50.1259766 L122.133789,58 L121.091797,58 Z M123.653809,54.1650391 C123.653809,52.8580664 124.004717,51.8348833 124.706543,51.095459 C125.408369,50.3560347 126.314285,49.9863281 127.424316,49.9863281 C128.151208,49.9863281 128.806475,50.1599918 129.390137,50.5073242 C129.973798,50.8546567 130.4187,51.3389455 130.724854,51.9602051 C131.031007,52.5814647 131.184082,53.2859661 131.184082,54.0737305 C131.184082,54.8722371 131.022951,55.5865854 130.700684,56.2167969 C130.378416,56.8470084 129.921878,57.3241357 129.331055,57.6481934 C128.740231,57.972251 128.102868,58.1342773 127.418945,58.1342773 C126.677731,58.1342773 126.015302,57.9552427 125.431641,57.597168 C124.847979,57.2390933 124.405763,56.7503286 124.10498,56.1308594 C123.804198,55.5113901 123.653809,54.8561232 123.653809,54.1650391 Z M124.728027,54.1811523 C124.728027,55.1300503 124.983152,55.8775201 125.493408,56.423584 C126.003665,56.9696479 126.643714,57.2426758 127.413574,57.2426758 C128.197758,57.2426758 128.843178,56.9669624 129.349854,56.4155273 C129.856529,55.8640923 130.109863,55.0817108 130.109863,54.0683594 C130.109863,53.4274056 130.001547,52.8679223 129.784912,52.3898926 C129.568277,51.9118628 129.251386,51.5412611 128.834229,51.2780762 C128.417071,51.0148913 127.948896,50.8833008 127.429688,50.8833008 C126.692054,50.8833008 126.057376,51.1366348 125.525635,51.6433105 C124.993894,52.1499863 124.728027,52.9959251 124.728027,54.1811523 Z M132.516113,58 L132.516113,50.1259766 L133.584961,50.1259766 L137.720703,56.3081055 L137.720703,50.1259766 L138.719727,50.1259766 L138.719727,58 L137.650879,58 L133.515137,51.8125 L133.515137,58 L132.516113,58 Z M143.526855,58 L143.526855,50.1259766 L146.239258,50.1259766 C146.851566,50.1259766 147.318846,50.1635738 147.641113,50.2387695 C148.092287,50.3426112 148.477212,50.5305976 148.795898,50.8027344 C149.211265,51.1536476 149.52189,51.6021294 149.727783,52.1481934 C149.933676,52.6942573 150.036621,53.3181931 150.036621,54.0200195 C150.036621,54.6180043 149.966798,55.1479469 149.827148,55.6098633 C149.687499,56.0717797 149.508465,56.4540187 149.290039,56.7565918 C149.071613,57.0591649 148.832602,57.297281 148.572998,57.4709473 C148.313394,57.6446135 148.000083,57.776204 147.633057,57.8657227 C147.26603,57.9552413 146.844403,58 146.368164,58 L143.526855,58 Z M144.568848,57.0708008 L146.25,57.0708008 C146.769208,57.0708008 147.176512,57.0224614 147.471924,56.9257812 C147.767335,56.8291011 148.002766,56.6930347 148.178223,56.5175781 C148.425294,56.2705066 148.617756,55.9383973 148.755615,55.5212402 C148.893474,55.1040832 148.962402,54.5983103 148.962402,54.0039062 C148.962402,53.1803344 148.827231,52.5474469 148.556885,52.1052246 C148.286538,51.6630023 147.95801,51.3667 147.571289,51.2163086 C147.291991,51.1088862 146.842614,51.0551758 146.223145,51.0551758 L144.568848,51.0551758 L144.568848,57.0708008 Z M150.605957,58 L153.629883,50.1259766 L154.752441,50.1259766 L157.975098,58 L156.788086,58 L155.869629,55.6152344 L152.577148,55.6152344 L151.712402,58 L150.605957,58 Z M152.87793,54.7666016 L155.547363,54.7666016 L154.725586,52.5859375 C154.474934,51.9234993 154.288738,51.3792339 154.166992,50.953125 C154.066731,51.4580103 153.925294,51.9593074 153.742676,52.4570312 L152.87793,54.7666016 Z M158.453125,55.4702148 L159.436035,55.3842773 C159.482585,55.7781595 159.590901,56.1013171 159.760986,56.3537598 C159.931072,56.6062024 160.195148,56.810302 160.553223,56.9660645 C160.911297,57.121827 161.314125,57.199707 161.761719,57.199707 C162.159182,57.199707 162.51009,57.1406256 162.814453,57.0224609 C163.118817,56.9042963 163.345295,56.7422699 163.493896,56.536377 C163.642497,56.330484 163.716797,56.1057955 163.716797,55.8623047 C163.716797,55.6152331 163.645183,55.3994964 163.501953,55.2150879 C163.358723,55.0306794 163.122397,54.8758144 162.792969,54.7504883 C162.581705,54.6681311 162.114424,54.5401213 161.391113,54.3664551 C160.667802,54.1927888 160.161134,54.0289721 159.871094,53.875 C159.495115,53.6780589 159.214926,53.4336766 159.030518,53.1418457 C158.846109,52.8500148 158.753906,52.5232765 158.753906,52.1616211 C158.753906,51.7641582 158.866698,51.3926612 159.092285,51.0471191 C159.317872,50.701577 159.647296,50.4392913 160.080566,50.2602539 C160.513837,50.0812166 160.99544,49.9916992 161.525391,49.9916992 C162.109052,49.9916992 162.623777,50.0856924 163.06958,50.2736816 C163.515383,50.4616709 163.858234,50.7382794 164.098145,51.1035156 C164.338055,51.4687518 164.46696,51.8823219 164.484863,52.3442383 L163.48584,52.4194336 C163.432129,51.9217098 163.250408,51.5457369 162.940674,51.2915039 C162.630939,51.0372709 162.173506,50.9101562 161.568359,50.9101562 C160.938148,50.9101562 160.478924,51.0256336 160.190674,51.2565918 C159.902424,51.48755 159.758301,51.7659489 159.758301,52.0917969 C159.758301,52.3746759 159.860351,52.607421 160.064453,52.7900391 C160.264975,52.9726572 160.788651,53.1597484 161.635498,53.3513184 C162.482345,53.5428883 163.063312,53.7102857 163.378418,53.8535156 C163.836754,54.0647797 164.175129,54.3324365 164.393555,54.6564941 C164.61198,54.9805518 164.721191,55.353839 164.721191,55.7763672 C164.721191,56.1953146 164.601238,56.590086 164.361328,56.9606934 C164.121418,57.3313007 163.776776,57.6195465 163.327393,57.8254395 C162.878009,58.0313324 162.372236,58.1342773 161.810059,58.1342773 C161.09749,58.1342773 160.500409,58.0304372 160.018799,57.8227539 C159.537188,57.6150706 159.159425,57.3026551 158.885498,56.885498 C158.611571,56.468341 158.467448,55.9965847 158.453125,55.4702148 Z M166.176758,58 L166.176758,50.1259766 L167.21875,50.1259766 L167.21875,53.359375 L171.311523,53.359375 L171.311523,50.1259766 L172.353516,50.1259766 L172.353516,58 L171.311523,58 L171.311523,54.2885742 L167.21875,54.2885742 L167.21875,58 L166.176758,58 Z M174.04541,58 L174.04541,50.1259766 L176.999512,50.1259766 C177.601077,50.1259766 178.083576,50.205647 178.447021,50.3649902 C178.810467,50.5243335 179.095132,50.769611 179.301025,51.1008301 C179.506918,51.4320492 179.609863,51.7784813 179.609863,52.1401367 C179.609863,52.4767269 179.518556,52.7936183 179.335938,53.0908203 C179.153319,53.3880223 178.877606,53.6279288 178.508789,53.8105469 C178.985028,53.950196 179.351154,54.1883121 179.607178,54.5249023 C179.863201,54.8614926 179.991211,55.2589495 179.991211,55.7172852 C179.991211,56.0861021 179.913331,56.4289535 179.757568,56.7458496 C179.601806,57.0627457 179.409344,57.307128 179.180176,57.4790039 C178.951008,57.6508798 178.663657,57.7806799 178.318115,57.8684082 C177.972573,57.9561365 177.549156,58 177.047852,58 L174.04541,58 Z M175.087402,53.4345703 L176.790039,53.4345703 C177.251955,53.4345703 177.58317,53.4041344 177.783691,53.3432617 C178.048667,53.2644853 178.24829,53.13379 178.382568,52.9511719 C178.516846,52.7685538 178.583984,52.5393894 178.583984,52.2636719 C178.583984,52.0022773 178.521322,51.7722178 178.395996,51.5734863 C178.27067,51.3747549 178.091635,51.2386885 177.858887,51.1652832 C177.626138,51.0918779 177.226891,51.0551758 176.661133,51.0551758 L175.087402,51.0551758 L175.087402,53.4345703 Z M175.087402,57.0708008 L177.047852,57.0708008 C177.384442,57.0708008 177.620768,57.0582684 177.756836,57.0332031 C177.996746,56.9902342 178.197265,56.9186203 178.358398,56.8183594 C178.519532,56.7180985 178.652018,56.5721852 178.755859,56.3806152 C178.859701,56.1890453 178.911621,55.9679375 178.911621,55.7172852 C178.911621,55.4236639 178.836427,55.1685395 178.686035,54.9519043 C178.535644,54.7352691 178.327068,54.5830896 178.060303,54.4953613 C177.793537,54.407633 177.409508,54.3637695 176.908203,54.3637695 L175.087402,54.3637695 L175.087402,57.0708008 Z M181.108398,54.1650391 C181.108398,52.8580664 181.459306,51.8348833 182.161133,51.095459 C182.862959,50.3560347 183.768875,49.9863281 184.878906,49.9863281 C185.605798,49.9863281 186.261065,50.1599918 186.844727,50.5073242 C187.428388,50.8546567 187.873289,51.3389455 188.179443,51.9602051 C188.485597,52.5814647 188.638672,53.2859661 188.638672,54.0737305 C188.638672,54.8722371 188.477541,55.5865854 188.155273,56.2167969 C187.833006,56.8470084 187.376468,57.3241357 186.785645,57.6481934 C186.194821,57.972251 185.557458,58.1342773 184.873535,58.1342773 C184.132321,58.1342773 183.469892,57.9552427 182.88623,57.597168 C182.302569,57.2390933 181.860353,56.7503286 181.55957,56.1308594 C181.258788,55.5113901 181.108398,54.8561232 181.108398,54.1650391 Z M182.182617,54.1811523 C182.182617,55.1300503 182.437742,55.8775201 182.947998,56.423584 C183.458255,56.9696479 184.098303,57.2426758 184.868164,57.2426758 C185.652348,57.2426758 186.297768,56.9669624 186.804443,56.4155273 C187.311119,55.8640923 187.564453,55.0817108 187.564453,54.0683594 C187.564453,53.4274056 187.456137,52.8679223 187.239502,52.3898926 C187.022867,51.9118628 186.705975,51.5412611 186.288818,51.2780762 C185.871661,51.0148913 185.403486,50.8833008 184.884277,50.8833008 C184.146643,50.8833008 183.511966,51.1366348 182.980225,51.6433105 C182.448484,52.1499863 182.182617,52.9959251 182.182617,54.1811523 Z M189.116699,58 L192.140625,50.1259766 L193.263184,50.1259766 L196.48584,58 L195.298828,58 L194.380371,55.6152344 L191.087891,55.6152344 L190.223145,58 L189.116699,58 Z M191.388672,54.7666016 L194.058105,54.7666016 L193.236328,52.5859375 C192.985676,51.9234993 192.79948,51.3792339 192.677734,50.953125 C192.577473,51.4580103 192.436036,51.9593074 192.253418,52.4570312 L191.388672,54.7666016 Z M197.334473,58 L197.334473,50.1259766 L200.825684,50.1259766 C201.52751,50.1259766 202.061033,50.1966953 202.42627,50.3381348 C202.791506,50.4795743 203.083332,50.7293276 203.301758,51.0874023 C203.520183,51.4454771 203.629395,51.8411437 203.629395,52.2744141 C203.629395,52.8330106 203.44857,53.3038718 203.086914,53.6870117 C202.725259,54.0701517 202.16667,54.3136388 201.411133,54.4174805 C201.68685,54.5499681 201.896321,54.6806634 202.039551,54.8095703 C202.343914,55.0888686 202.63216,55.4379862 202.904297,55.8569336 L204.273926,58 L202.963379,58 L201.921387,56.3618164 C201.617023,55.8891578 201.366375,55.5275078 201.169434,55.2768555 C200.972493,55.0262032 200.796143,54.8507492 200.640381,54.7504883 C200.484618,54.6502274 200.326173,54.5804038 200.165039,54.5410156 C200.046874,54.5159504 199.853517,54.503418 199.584961,54.503418 L198.376465,54.503418 L198.376465,58 L197.334473,58 Z M198.376465,53.6010742 L200.616211,53.6010742 C201.09245,53.6010742 201.464842,53.5518397 201.733398,53.4533691 C202.001954,53.3548986 202.206054,53.1973481 202.345703,52.9807129 C202.485352,52.7640777 202.555176,52.5286471 202.555176,52.2744141 C202.555176,51.9020164 202.420005,51.5958671 202.149658,51.355957 C201.879312,51.116047 201.452314,50.9960938 200.868652,50.9960938 L198.376465,50.9960938 L198.376465,53.6010742 Z M205.262207,58 L205.262207,50.1259766 L207.974609,50.1259766 C208.586917,50.1259766 209.054198,50.1635738 209.376465,50.2387695 C209.827639,50.3426112 210.212564,50.5305976 210.53125,50.8027344 C210.946617,51.1536476 211.257242,51.6021294 211.463135,52.1481934 C211.669028,52.6942573 211.771973,53.3181931 211.771973,54.0200195 C211.771973,54.6180043 211.702149,55.1479469 211.5625,55.6098633 C211.422851,56.0717797 211.243816,56.4540187 211.025391,56.7565918 C210.806965,57.0591649 210.567954,57.297281 210.30835,57.4709473 C210.048745,57.6446135 209.735435,57.776204 209.368408,57.8657227 C209.001382,57.9552413 208.579755,58 208.103516,58 L205.262207,58 Z M206.304199,57.0708008 L207.985352,57.0708008 C208.50456,57.0708008 208.911864,57.0224614 209.207275,56.9257812 C209.502687,56.8291011 209.738118,56.6930347 209.913574,56.5175781 C210.160646,56.2705066 210.353108,55.9383973 210.490967,55.5212402 C210.628826,55.1040832 210.697754,54.5983103 210.697754,54.0039062 C210.697754,53.1803344 210.562583,52.5474469 210.292236,52.1052246 C210.02189,51.6630023 209.693361,51.3667 209.306641,51.2163086 C209.027342,51.1088862 208.577965,51.0551758 207.958496,51.0551758 L206.304199,51.0551758 L206.304199,57.0708008 Z"/>
  </g>
</svg>
