<?xml version="1.0" standalone="no"?>
<!DOCTYPE svg PUBLIC "-//W3C//DTD SVG 20010904//EN"
 "http://www.w3.org/TR/2001/REC-SVG-20010904/DTD/svg10.dtd">
<svg version="1.0" xmlns="http://www.w3.org/2000/svg"
 width="512.000000pt" height="512.000000pt" viewBox="0 0 512.000000 512.000000"
 preserveAspectRatio="xMidYMid meet">
<metadata>
Created by potrace 1.13, written by Peter Selinger 2001-2015
</metadata>
<g transform="translate(0.000000,512.000000) scale(0.100000,-0.100000)"
fill="#000000" stroke="none">
<path d="M385 4782 c-116 -40 -224 -128 -305 -248 -87 -131 -80 47 -80 -1974
0 -2021 -7 -1843 81 -1974 64 -96 154 -178 248 -224 l75 -37 2156 0 2156 0 75
37 c94 46 184 128 248 224 88 131 81 -47 81 1974 0 2021 7 1843 -81 1974 -64
96 -154 178 -248 224 l-75 37 -2140 2 c-2011 2 -2144 1 -2191 -15z m4145 -342
c90 -48 188 -149 231 -235 l34 -70 0 -1575 0 -1575 -34 -70 c-43 -87 -145
-191 -233 -237 l-63 -33 -1905 0 -1905 0 -63 33 c-88 46 -190 150 -233 237
l-34 70 0 1575 0 1575 34 69 c54 111 177 222 289 262 30 11 389 13 1927 11
l1890 -2 65 -35z"/>
<path d="M1120 3841 l0 -159 -43 -6 c-105 -16 -215 -103 -253 -201 -17 -44
-19 -77 -19 -275 0 -198 2 -231 19 -275 38 -98 148 -185 253 -201 l43 -6 0
-799 0 -799 80 0 80 0 0 799 0 799 43 6 c105 16 215 103 253 201 17 44 19 77
19 275 0 198 -2 231 -19 275 -38 98 -148 185 -253 201 l-43 6 0 159 0 159 -80
0 -80 0 0 -159z m193 -334 c44 -19 103 -87 116 -134 14 -49 14 -297 0 -346
-13 -47 -72 -115 -116 -134 -18 -7 -68 -13 -113 -13 -45 0 -95 6 -113 13 -44
19 -103 87 -116 134 -14 49 -14 297 0 346 12 45 72 115 114 133 40 17 187 18
228 1z"/>
<path d="M2400 3201 l0 -799 -43 -6 c-105 -16 -215 -103 -253 -201 -17 -44
-19 -77 -19 -275 0 -198 2 -231 19 -275 38 -98 148 -185 253 -201 l43 -6 0
-159 0 -159 80 0 80 0 0 159 0 159 43 6 c105 16 215 103 253 201 17 44 19 77
19 275 0 198 -2 231 -19 275 -38 98 -148 185 -253 201 l-43 6 0 799 0 799 -80
0 -80 0 0 -799z m193 -974 c44 -19 103 -87 116 -134 6 -21 11 -99 11 -173 0
-159 -9 -198 -58 -252 -49 -55 -85 -68 -182 -68 -97 0 -133 13 -182 68 -49 54
-58 93 -58 252 0 74 5 152 11 173 12 45 72 115 114 133 40 17 187 18 228 1z"/>
<path d="M3680 3601 l0 -399 -43 -6 c-105 -16 -215 -103 -253 -201 -17 -44
-19 -77 -19 -275 0 -198 2 -231 19 -275 38 -98 148 -185 253 -201 l43 -6 0
-559 0 -559 80 0 80 0 0 559 0 559 43 6 c105 16 215 103 253 201 17 44 19 77
19 275 0 198 -2 231 -19 275 -38 98 -148 185 -253 201 l-43 6 0 399 0 399 -80
0 -80 0 0 -399z m193 -574 c44 -19 103 -87 116 -134 6 -21 11 -99 11 -173 0
-159 -9 -198 -58 -252 -49 -55 -85 -68 -182 -68 -97 0 -133 13 -182 68 -49 54
-58 93 -58 252 0 74 5 152 11 173 12 45 72 115 114 133 40 17 187 18 228 1z"/>
</g>
</svg>
