<svg width="280" height="280" viewBox="0 0 280 280" xmlns="http://www.w3.org/2000/svg"><title>Artboard</title><g fill="#000" fill-rule="evenodd"><path d="M205.323 131.172h-.002c0-10.335-8.403-18.74-18.737-18.74-3.857 0-7.444 1.172-10.426 3.176-2.563-7.298-9.518-12.545-17.682-12.545-3.412 0-6.61.92-9.37 2.52V74.955c0-10.334-8.403-18.738-18.738-18.738-10.334 0-18.738 8.404-18.738 18.738v75.426c-10.677 2.177-18.74 11.638-18.74 22.954 0 13.07 4.92 25.54 13.857 35.107 9.192 9.84 14.25 22.422 14.25 35.464v13.754c0 5.247 2.812 12.556 16.238 17.493 8.16 3 19.03 4.657 30.61 4.657 21.615 0 46.847-5.8 46.847-22.148v-24.55c0-6.492.834-13.37 2.54-21.015 4.524-20.378 6.83-41.3 6.83-62.184 0-10.334-8.405-18.738-18.74-18.738zm2.754 78.89c-1.856 8.32-2.755 15.853-2.755 23.048v24.548c0 7.046-16.81 12.78-37.477 12.78-20.67 0-37.478-5.734-37.478-12.78v-13.754c0-15.422-5.96-30.292-16.78-41.872-7.3-7.814-11.328-18-11.328-28.698 0-6.107 3.917-11.314 9.37-13.248v17.932h9.367V74.955c0-5.172 4.208-9.37 9.37-9.37 5.163 0 9.37 4.198 9.37 9.37v65.587h9.37v-18.75c.005-5.167 4.21-9.36 9.368-9.36 5.163 0 9.37 4.198 9.37 9.37v18.74h9.368v-9.37c0-5.173 4.208-9.37 9.37-9.37 5.163 0 9.37 4.198 9.37 9.37v18.738h9.368v-9.31c4.85.128 9.372 4.17 9.372 9.31 0 20.192-2.23 40.44-6.615 60.152z"/><path d="M64.782 74.955c0-36.156 29.42-65.585 65.585-65.585 36.166 0 65.586 29.43 65.586 65.585 0 5.95-.787 11.834-2.36 17.493l9.03 2.492c1.79-6.474 2.7-13.192 2.7-19.985C205.323 33.627 171.695 0 130.367 0S55.412 33.627 55.412 74.955c0 21.287 9.107 41.647 24.98 55.85l6.25-6.97c-13.896-12.433-21.86-30.254-21.86-48.88z"/></g></svg>