<svg width="300" height="300" viewBox="0 0 300 300"><path d="M143.767 283.788V125.486c0-7.604-6.165-13.776-13.775-13.776H40.647c-7.604 0-13.776 6.172-13.776 13.776v158.302c0 7.604 6.173 13.775 13.777 13.775h89.37c7.61 0 13.75-6.17 13.75-13.775zm-35.75-219.166c-1.003-35.038-36.64-61.94-36.64-61.94S63.63 34.39 56.43 47.927c-15.428 29.008 18.056 52.47 18.056 52.47s-3.417-17.407 2.92-28.862c6.337-11.462 7.94-19.996 7.94-19.996s9.852 6.6 8.725 22.67c-.5 7.01-5.02 31.666-5.02 31.666s19.495-22.96 18.968-41.254zm47.426 125.15v94.016c0 7.604 6.17 13.775 13.775 13.775h89.37c7.61 0 13.775-6.17 13.775-13.775V189.77c0-7.603-6.165-13.774-13.775-13.774h-89.37c-7.604 0-13.775 6.17-13.775 13.775zm77.08-78.992c-7.2-13.537-14.95-45.25-14.95-45.25s-35.632 26.907-36.636 61.94c-.527 18.318 18.985 41.26 18.985 41.26s-4.518-24.663-5.02-31.667c-1.145-16.096 8.73-22.67 8.73-22.67s1.58 8.534 7.94 19.99c6.363 11.454 2.916 28.866 2.916 28.866s33.46-23.462 18.036-52.47z" fill-rule="evenodd"/></svg>