<svg width="300" height="300" viewBox="0 0 300 300"><g fill-rule="evenodd"><path d="M236.043 280.49c-1.048-.34-2.072-.34-2.778-.682-1.39-.342-2.774-.342-4.505-.683-2.077-.347-4.15-.688-6.24-.688-2.774-.342-5.534-.342-8.312-.683-3.462-.346-6.923-.346-10.385-.688-4.505-.34-8.654-.34-13.158-.683-5.534 0-10.727-.34-16.265-.34-6.577 0-12.798 0-19.38-.348h-11.068c-6.58 0-12.803 0-19.384.347-5.534 0-10.726.34-16.26.34-4.51 0-8.654.343-13.163.684-3.462.342-6.923.342-10.385.688-2.774.34-5.534.34-8.308.683-2.077.34-4.15.34-6.24.688-1.39.34-2.774.34-4.504.683-1.048.34-2.077.34-2.78.683-.682.347-2.413.688-2.777 1.048v.684c1.048 2.076 3.462 3.807 5.54 4.85-1.048-1.043-3.808-3.803-2.078-5.192.688-.683 1.73-.683 2.78-.683 3.46-.688 7.263-1.048 10.725-1.39 4.15-.34 8.654-.682 12.803-.682 4.505-.347 8.995-.347 13.846-.347 4.505 0 8.996-.34 13.5-.34h8.312c1.39 8.994 11.073 15.917 23.188 15.917 12.116 0 21.812-6.923 23.183-15.918h9.336c4.51 0 9 0 13.505.34 4.51 0 9 .348 13.847.348 4.15.34 8.654.34 12.803.683 3.462.34 7.265.683 10.726 1.39.683 0 2.072 0 2.78.682 1.725 1.73-1.05 4.15-2.078 5.192 2.077-1.043 4.51-2.414 5.538-4.85 0-.342.342-.684 0-.684.05-.34-1.68-.683-2.363-1.047zm-86.88 12.48c-11.432 0-20.428-6.24-21.817-14.533h43.269c-1.047 8.294-10.043 14.534-21.452 14.534z"/><path d="M243.308 272.202c-.683-11.433-6.923-61.625-69.23-96.582 1.388-10.043-8.655-14.188-8.655-14.188v-19.726s.683-17.99-13.846-23.543V1.495h-2.78v116.65c-14.888 5.533-14.186 23.543-14.186 23.543v19.726s-10.042 4.144-8.653 14.188c-62.65 34.633-68.89 85.167-69.23 96.6 0 0-8.655 3.803-6.924 10.726.688 4.144 5.534 5.875 8.995 7.264 6.24 2.414 12.804 3.803 19.385 4.85 13.5 2.415 27.346 2.775 40.85 3.463 10.385.34 20.77.34 31.155.34 10.384 0 20.77 0 31.154-.34 13.504-.342 27.35-1.048 40.855-3.462 6.58-1.048 13.158-2.778 19.38-4.85 3.46-1.39 8.312-3.12 8.995-7.265 1.048-6.923-7.264-10.726-7.264-10.726zm-13.505-2.78h-4.145s1.39-18.354-11.432-41.196c0 .342 14.188 17.308 15.577 41.197zm-93.12-112.84v-16.948c0-3.12-.34-6.582 1.39-9.702 1.047-1.73 2.418-3.115 3.802-4.504 1.73-1.39 3.808-2.78 5.88-3.462-3.12 1.39-5.192 3.462-6.923 6.582-.687 1.384-1.047 2.414-1.39 3.803-.34 1.732-.34 3.462-.34 5.535V158.655h-2.78c.02-.342.02-1.048.36-2.072zm-7.265 14.187c1.048-2.78 2.78-4.852 4.85-6.582H136c2.778-.342 5.534-.342 7.606 1.39-4.846 0-9.697 2.07-12.798 5.874-.342.346-.683.688-1.39.688-.34.018 0-.688 0-1.37zm-2.072 7.605l2.78-1.384h14.186s1.39 1.385-2.778 1.385H131.49s-59.528 25.62-69.23 93.462h-2.774c.02 0 4.163-58.14 67.86-93.462zm-53.312 91.048H69.89c1.388-24.23 15.576-41.197 15.576-41.197-12.82 22.842-11.432 41.197-11.432 41.197zm172.394 12.115c-.688 3.804-6.24 5.876-9.342 7.265-1.043 0-2.414.688-3.803 1.048-1.043.342-2.072.342-3.46.684-2.775.34-5.194 1.048-7.968 1.39-5.192.682-10.73 1.388-15.923 2.07-14.187 1.732-28.375 2.42-42.923 2.78H136.682c-14.188-.342-28.735-1.048-42.923-2.78-5.538-.682-10.73-1.388-15.923-2.07-2.774-.342-5.192-.684-7.966-1.39-1.047-.342-2.072-.342-3.46-.683-1.048-.34-2.42-1.047-3.804-1.047-3.12-1.39-8.654-3.46-9.34-7.265-.684-3.12 1.73-5.533 4.148-7.264 19.38-3.803 89.654-4.15 92.414-4.15 2.418 0 73.034 0 92.418 4.15 2.792 1.73 4.865 4.144 4.182 7.264z"/><path d="M162.645 282.928l-1.043.34c-.688.343-1.39 1.05-1.73 1.732-.343.342-.343.683-.343 1.048.34.683 1.042.683 1.73.34 1.043-.34 1.73-1.388 1.73-2.07.02-.707.702-1.05-.345-1.39zm4.51-1.73l-.684-.343c-.687.342-.687 1.043-.345 1.73.346.343 1.39.343 1.73 0 .347-.705-.018-1.388-.7-1.388z"/></g></svg>