<svg width="300" height="300" viewBox="0 0 300 300"><g fill="none" fill-rule="evenodd"><path stroke="#000" stroke-width=".9" d="M188.81 248.643c5.247 21.458-7.867 42-29.35 45.754 0 0-1.682.538-3.67.538-.812 0-3.207 2.978-5.28 2.978-2.088 0-4.332-2.978-5.08-2.978-2.04 0-3.887-.55-3.887-.55-21.452-3.813-34.7-24.3-29.57-45.826l15.727-65.953c1.39-5.828 7.322-10.548 13.196-10.548h18.495c5.897 0 11.823 4.702 13.25 10.494l16.17 66.09z"/><path fill="#000" d="M3.26 215.074l97.827-55.148v-40.808h42.39V3.308h13.045v115.81h42.39v40.808l97.827 55.148v6.617H3.26"/></g></svg>