<svg width="300" height="300" viewBox="0 0 300 300"><g fill-rule="evenodd"><path d="M34.64 266.047c0-18.525-14.89-33.415-33.418-33.415v33.415h33.42zM266.586 36.41H50.51c-17.197 0-31.107 13.893-31.107 31.108v66.503c6.948 1.002 13.566 2.312 20.184 4.31V67.19c0-5.964 4.963-10.927 10.923-10.927h216.075c5.96 0 10.924 4.963 10.924 10.928v147.244c0 5.965-4.964 10.928-10.925 10.928h-137.99c1.984 6.617 3.64 13.235 4.636 20.18h133.355c17.197 0 31.108-13.893 31.108-31.108V67.19c-.35-16.87-14.237-30.78-31.108-30.78z"/><path d="M49.53 266.047H76.33c0-41.36-33.746-75.1-75.106-75.1v26.796c26.802 0 48.31 21.833 48.31 48.304z"/><path d="M92.546 266.047h26.797c0-65.175-52.942-118.116-118.12-118.116v26.798c50.29 0 91.323 41.034 91.323 91.32z"/></g></svg>