<svg width="300" height="300" viewBox="0 0 300 300"><path fill-rule="evenodd" d="M263.392 242.92c0-41.672-26.484-79.564-62.984-96.952-1.236-25.284-14.08-44.844-31.376-51.172-.484-8.456-6.156-15.048-13.392-15.048-7.528 0-13.42 7.108-13.468 16.048-8.748 3.936-16.232 11.296-21.42 21.124H61.596c-2.72-17.844-15.36-31.376-30.516-31.376C13.94 85.544 0 102.84 0 124.108c0 21.264 13.94 38.564 31.08 38.564 15.828 0 28.892-14.752 30.812-33.752H116c-1.528 5.312-2.484 11.048-2.78 17.124-36.42 17.408-62.828 55.268-62.828 96.876v6h37.876c2.016 28.592 32.64 51.08 70 51.08s67.968-22.488 69.984-51.08h35.14v-6zM31.08 150.672c-10.516 0-19.08-11.924-19.08-26.564 0-14.656 8.564-26.564 19.08-26.564 8.732 0 16.092 8.22 18.344 19.376H29.392v12h20.436c-1.624 12.36-9.404 21.752-18.748 21.752zm124.452-58.94c.204.08.548.344.86.876-.548 0-1.064.064-1.592.092.312-.592.624-.888.732-.968zm1.28 12.844c15.488 0 28.392 14.376 31.172 36.376-9.904-3.252-20.356-5.032-31.092-5.032-10.78 0-21.296 1.796-31.252 5.08 2.752-22.016 15.672-36.424 31.172-36.424zM158.268 288c-30.688 0-55.812-16.596-57.908-39.08h115.796c-2.076 22.484-27.2 39.08-57.888 39.08zm-96.016-51.08c3.452-47.296 47.06-88.984 94.764-88.984 47.704 0 91.312 41.688 94.768 88.984H62.252z"/></svg>