<svg width="300" height="300" viewBox="0 0 300 300"><path fill-rule="evenodd" d="M233.844 110.592h-16.672c-1.468-33-24.5-59.564-55.58-65.516 3.8-3.28 6.22-8.548 6.22-13.968 0-9.892-8.016-18.108-17.904-18.108C140.016 13 132 20.904 132 30.796c0 5.156 2.204 10.592 5.688 13.86-32.688 4.7-57.296 32.936-58.828 65.936H65.5c-9.108 0-16.5 3.908-16.5 10.5 0 6.592 7.392 10.5 16.5 10.5h8.72c.92 66 28.672 114.032 65.576 121.78-4.688 3.22-7.78 8.736-7.78 14.86 0 9.892 8.016 17.952 17.904 17.952 9.892 0 17.908-7.984 17.908-17.872 0-6.08-3.032-11.64-7.672-14.876 37.108-7.484 65.048-55.844 65.968-121.844h7.72c9.108 0 16.5-3.908 16.5-10.5 0-6.592-7.392-10.5-16.5-10.5zm-60.564 21c0 48-14.544 83.452-24.06 102.736-9.172-17.688-24.956-54.736-25.656-102.736h49.716zm-85.856 0h22.936c.672 51 16 86.984 25.968 106.656-27.076-11.156-48.048-52.656-48.904-106.656zm74.248 107.532c10.188-20.752 24.812-56.532 24.812-107.532h26.436c-.872 54-23.06 97.968-51.248 107.532z"/></svg>