<svg width="300" height="300" viewBox="0 0 300 300"><g fill-rule="evenodd"><path d="M147.946 48.02c0-9.992-3.894-19.388-10.97-26.463-7.075-7.076-16.472-10.97-26.485-10.97-9.995 0-19.392 3.894-26.467 10.97-3.096 3.09-5.95 7.075-8.406 11.52-2.54-4.626-5.502-8.78-8.688-11.968-7.077-7.076-16.473-10.965-26.47-10.965-9.99 0-19.386 3.89-26.462 10.964-14.592 14.598-14.592 38.366 0 52.958 3.16 3.16 7.183 5.99 11.587 8.423-4.602 2.48-8.78 5.418-12.028 8.69-14.6 14.592-14.6 38.343 0 52.936 7.075 7.075 16.47 10.964 26.462 10.964 10.018 0 19.392-3.89 26.467-10.964.29-.29.577-.617.843-.93V288.7h15.85V144.115c.135.13.266.31.4.44 7.077 7.077 16.473 10.965 26.486 10.965 9.997 0 19.393-3.887 26.47-10.963 7.074-7.075 10.968-16.472 10.968-26.468 0-9.99-3.894-19.393-10.97-26.47-3.164-3.157-7.183-5.988-11.586-8.422 4.58-2.473 8.756-5.394 12.028-8.666 7.076-7.098 10.97-16.494 10.97-26.513zm-80.86 57.82c-.135 1.772-.423 3.65-.865 5.615-1.856 8.247-6.17 16.653-10.94 21.425-4.093 4.07-9.487 6.328-15.26 6.328-5.746 0-11.186-2.258-15.256-6.328-8.4-8.4-8.4-22.087 0-30.51 5.683-5.683 17.69-11.496 28.432-11.853.487 0 .997.09 1.483.09.356 0 .684-.067 1.04-.09 2.876.153 6.233.844 8.4 3.006 1.773 1.772 2.763 4.67 2.984 8.292-.04 1.33-.062 2.655-.017 4.025zm.465-41.587c-.31 3.09-1.238 5.7-2.965 7.45-2.275 2.275-5.926 2.92-8.91 3.005-.486 0-.928-.108-1.414-.108-.356 0-.707.063-1.064.063-10.613-.504-22.375-6.21-27.968-11.808-8.4-8.423-8.4-22.11 0-30.51 4.07-4.07 9.487-6.322 15.255-6.322 5.774 0 11.19 2.23 15.26 6.322 6.323 6.323 11.186 17.955 11.848 27.33-.107 1.567-.107 3.072-.04 4.578zm57.8 38.56c4.064 4.07 6.322 9.486 6.322 15.253 0 5.774-2.258 11.19-6.322 15.26-4.07 4.088-9.487 6.324-15.26 6.324-5.77 0-11.186-2.236-15.256-6.323-4.777-4.777-9.068-13.183-10.947-21.43-.487-2.163-.77-4.2-.906-6.125.07-1.257.07-2.474.024-3.69.266-3.538 1.24-6.368 2.966-8.112 2.276-2.28 5.92-2.898 8.91-3.01.486.02.928.112 1.415.112.35 0 .707-.068 1.058-.068 10.613.487 22.398 6.215 27.997 11.808zm.418-39.534c-5.66 5.66-17.666 11.473-28.415 11.847-.487-.023-1.013-.085-1.5-.085-.38 0-.707.062-1.087.085-2.875-.153-6.21-.838-8.377-2.983-1.773-1.766-2.746-4.665-2.99-8.27.068-1.347.09-2.695.023-4.07.158-1.766.42-3.623.89-5.592 1.855-8.248 6.163-16.648 10.94-21.425 4.07-4.07 9.487-6.323 15.255-6.323 5.774 0 11.19 2.253 15.26 6.323s6.323 9.487 6.323 15.255c0 5.75-2.235 11.168-6.322 15.237zM270.77 98.497c-2.965-1.233-6.367-.57-8.643 1.704l-16.94 16.83-12.845-16.145c-1.46-1.834-3.673-2.938-6.04-2.983-2.32-.158-4.595.95-6.163 2.717l-14.288 16.433-15.498-16.63c-2.236-2.366-5.683-3.158-8.712-1.97-3.028 1.195-5.02 4.138-5.02 7.387v41.593c0 24.605 18.045 45.017 41.592 48.82v92.424h15.855v-92.4c19.85-3.25 36.282-18.488 40.527-38.65.685-3.385 1.036-6.815 1.036-10.217v-41.593c0-3.18-1.924-6.08-4.862-7.32zm-10.986 48.912c0 2.32-.243 4.687-.708 6.962-3.254 15.48-17.117 26.69-32.95 26.69-18.57 0-33.65-15.103-33.65-33.675V125.94l7.783 8.338c1.522 1.636 3.645 2.54 5.948 2.52 2.23-.047 4.353-1.043 5.836-2.724l13.817-15.872 12.432 15.612c1.415 1.766 3.492 2.847 5.745 2.983 2.258.13 4.443-.708 6.062-2.276l9.7-9.644v22.534h-.016z"/><path d="M37.166 288.654H53.02V231.41H37.167M97.512 288.654h15.854V231.41H97.512M127.693 288.654h15.855V231.41h-15.855M157.852 288.654h15.854V231.41h-15.854M188.033 288.654h15.855V231.41h-15.855M248.373 288.654h15.854V231.41h-15.854M278.554 288.654h15.855V231.41h-15.856"/></g></svg>