<svg width="300" height="300" viewBox="0 0 300 300"><path d="M116.73 277.735l17.65 20.77c.688.683 1.39 1.043 2.418 1.043h25.274c1.048 0 1.73-.342 2.42-1.043l17.648-20.77c.342-.687.683-1.39.683-2.072v-1.048c0-1.73-1.385-3.12-3.115-3.12h-60.2c-1.73 0-3.12 1.39-3.12 3.12v1.048c-.34.683 0 1.366.343 2.072zm68.184-27.692h-70.597c-2.78 0-5.192-2.418-5.192-5.192v-2.418c0-2.774 2.413-5.192 5.192-5.192h70.96c2.775 0 5.194 2.418 5.194 5.192v2.42c0 2.754-2.436 5.19-5.556 5.19zm-3.462 17.308h-63.674c-2.778 0-5.192-2.418-5.192-5.192v-3.12c0-2.778 2.414-5.192 5.192-5.192h63.35c2.78 0 5.194 2.414 5.194 5.192v3.12c-.02 2.756-2.09 5.193-4.87 5.193zM155.492.813c-53.31-3.46-97.607 39.12-97.607 91.73 0 7.607 1.047 15.236 2.778 22.5 2.414 8.313 6.577 16.967 10.726 25.62 11.773 23.184 26.644 45.684 27.35 58.847.342 8.653 1.385 14.888 3.462 19.38.683 1.73 4.144 6.235 7.966 11.427 1.047 1.39 2.778 2.077 4.15 2.077h70.273c1.732 0 3.12-.688 4.15-2.077 3.803-4.846 7.265-9.697 7.966-11.428 2.072-4.51 3.12-11.073 3.462-19.38.34-13.164 15.577-35.664 27.35-58.847 4.505-8.654 8.313-17.308 10.727-25.62 2.072-8.312 3.12-16.625 2.778-25.62-1.408-47.072-38.8-85.855-85.532-88.61zM72.777 88.034l-2.436-.342c3.803-30.812 24.572-58.163 52.97-70.278l1.043 2.418C97.01 31.625 76.582 58.27 72.778 88.034z" fill-rule="evenodd"/></svg>