<svg width="300" height="300" viewBox="0 0 300 300"><path fill-rule="evenodd" d="M18 214.984h117.296v2.908c-13.404 1.344-64.016 6.952-67.5 15.248-.484 1.172-.28 2.424.596 3.5l.452.564h.72c5.544 0 31-2.312 49.576-3.984 10-.908 18.624-1.688 19.564-1.688l26.188-.016c10.576 1.14 63.452 6.844 64.64 6.844 1.092 0 2.36-1.08 2.436-2.64.376-6.784-21.876-12.768-66.14-17.812v-2.94H283V61H18v153.984zm259.376-5.716H23.092V66.344h254.284v142.924zm-113.252 11.484c57.656 6.484 64.032 13.184 64.736 14.56-5.956-.56-47.296-5-63.828-6.78h-26.344c-1.016 0-7.844.608-19.828 1.704-17.5 1.576-41.128 3.716-48.236 3.952 2.484-4.608 35.5-10.436 66.312-13.436l1.36-.128V215h24.5v5.608l1.328.144z"/></svg>