<svg width="300" height="300" viewBox="0 0 300 300"><g fill-rule="evenodd"><path d="M201.524 145.1l-.167.033c-2.752-52.733-46.41-94.828-99.833-94.828C46.37 50.305 1.486 95.19 1.486 150.362c0 55.17 44.904 100.076 100.057 100.076 46.69 0 85.9-32.162 96.914-75.467 10.99 43.306 50.186 75.468 96.838 75.468h3.18v-35.362h-3.18c-43.733 0-83.185-29.428-93.77-69.976zm-99.98 98.976c-51.654 0-93.677-42.02-93.677-93.695 0-51.656 42.023-93.694 93.676-93.694 51.676 0 93.733 42.038 93.733 93.695 0 51.658-42.057 93.696-93.733 93.696zm190.57-.057c-44.757-1.487-81.643-34.563-89.12-77.587 16.706 31.9 51.173 53.796 89.12 54.967v22.62z"/><path d="M148.976 83.49c-11.028 0-20.014 8.986-20.014 20.034 0 11.047 8.986 20.033 20.014 20.033 11.048 0 20.034-8.986 20.034-20.033.02-11.03-8.967-20.034-20.034-20.034zm-95.386 67c0-11.047-8.985-20.033-20.033-20.033-11.033 0-20.014 9.005-20.014 20.033 0 11.053 8.98 20.034 20.014 20.034 11.048 0 20.033-8.98 20.033-20.034zm-.633 26.977c-11.028 0-20.014 8.98-20.014 20.033 0 11.048 8.986 20.033 20.014 20.033 11.048 0 20.033-8.985 20.033-20.033.02-11.052-8.966-20.033-20.033-20.033zm1.024-95c-11.028 0-20.032 8.985-20.032 20.033 0 11.052 8.985 20.033 20.033 20.033 11.05 0 20.053-8.98 20.053-20.033 0-11.048-8.985-20.033-20.052-20.033zm47.582 116c-11.048 0-20.033 8.98-20.033 20.033 0 11.048 8.984 20.033 20.032 20.033s20.033-8.985 20.033-20.033c.02-11.033-8.985-20.033-20.033-20.033zm0-133.967c-11.048 0-20.033 8.986-20.033 20.033 0 11.048 8.984 20.034 20.032 20.034s20.033-8.986 20.033-20.034c.02-11.047-8.985-20.033-20.033-20.033zm46.39 113.986c-11.047 0-20.033 8.985-20.033 20.033 0 11.05 8.985 20.032 20.032 20.032 11.053 0 20.034-8.98 20.034-20.033 0-11.05-8.98-20.034-20.034-20.034zm.838-27.996c0 11.053 8.986 20.034 20.015 20.034 11.052 0 20.033-8.98 20.033-20.034 0-11.047-8.98-20.033-20.033-20.033-11.03 0-20.015 8.986-20.015 20.033zm-47.21 16.148c8.41 0 15.253-6.843 15.253-15.252 0-8.43-6.843-15.253-15.252-15.253-8.428 0-15.27 6.843-15.27 15.253s6.842 15.252 15.27 15.252zm0-24.162c4.91 0 8.89 3.98 8.89 8.89s-4 8.89-8.89 8.89c-4.91 0-8.91-3.98-8.91-8.89 0-4.89 4-8.89 8.91-8.89zm137.41 78.776V208.1s-7.385-4.87-13.676-10.043v10.548c4.524 4.333 9.115 9.538 13.676 12.647zm21.615-2.904c-5.153-1.73-10.753-3.848-16.853-7.886V225.4c5.524 3.33 11.848 7.552 16.853 9.448v-16.5zm27.566 22.414l-.222-15.9h-.038c-.615 0-9.543-.114-21.615-4.614v16.87c11.476 3.444 19.905 3.644 21.634 3.644h.24z"/></g></svg>