<svg width="300" height="300" viewBox="0 0 300 300"><path fill-rule="evenodd" d="M255.816 13v28.8h-27.908V13h-21v28.8H93.204V13h-21v28.8H44.3V13H23v274.22h21v-28.796h27.908v28.796h21v-28.796h113.704v28.796h21v-28.796h27.904v28.796h21V13h-20.7zm0 225h-27.908v-27.904h27.908V238zM44 62.816h27.908V90.72H44V62.816zM206.612 91v48.908H93.204V63.096h113.704V91h-.296zM44 112h27.908v27.908H44V112zm0 48.908h27.908v27.908H44v-27.908zm0 48.908h27.908v27.904H44v-27.904zm49.204 0v-48.908h113.704v76.812H93.204v-27.904zm162.612-21h-27.908v-27.908h27.908v27.908zm0-48.908h-27.908V112h27.908v27.908zm0-48.908h-27.908V63.096h27.908V91z"/></svg>