<svg width="300" height="300" viewBox="0 0 300 300"><g fill-rule="evenodd"><path d="M178.816 156.23c0 6.732-5.242 12.186-11.737 12.186-6.496 0-11.78-5.454-11.78-12.185 0-6.735 5.284-12.19 11.78-12.19 6.494 0 11.736 5.433 11.736 12.19zm29.626 0c0-23.694-18.5-42.915-41.363-42.915-22.864 0-41.406 19.22-41.406 42.916 0 23.69 18.542 42.912 41.405 42.912 22.862 0 41.362-19.222 41.362-42.91zM73.616 206.577c-6.7 7.566-6.205 19.37 1.11 26.335.453.426.927.835 1.442 1.217l28.737 22.053c7.98 6.115 19.227 4.39 25.148-3.878 5.92-8.27 4.215-19.942-3.72-26.057L97.61 204.193c-4.152-3.158-9.415-4.348-14.473-3.262L40.395 84.7l4.973-1.98c2.51-.96 3.743-3.878 2.795-6.436L30.133 27.28c-.944-2.58-3.738-3.9-6.228-2.875l-4.973 1.96L10.705 4.01C9.637 1.137 6.51-.335 3.695.777.9 1.862-.5 5.14.568 8.02l8.227 22.37-4.32 1.685c-2.486 1.02-3.738 3.9-2.796 6.474l18.03 48.986c.927 2.58 3.722 3.88 6.232 2.92l4.316-1.725 43.358 117.846z"/><path d="M235.663 156.23c0 39.268-30.737 71.057-68.584 71.057-37.89 0-68.585-31.79-68.585-71.056 0-39.272 30.694-71.06 68.584-71.06 37.846 0 68.583 31.788 68.583 71.06zm-91.958 131.145c69.88 13.358 137.006-34.54 149.916-106.964 12.89-72.42-33.304-141.986-103.188-155.345-57.07-10.93-114.12 19.09-139.306 73.27l35.548 96.65c5.073-.043 10.01 1.62 14.1 4.75l28.72 22.032c10.364 7.926 12.522 23.078 4.853 33.813-7.668 10.696-22.242 12.976-32.584 5.03l-28.72-22.032c-10.054-7.69-12.46-22.222-5.448-32.962l-27.1-73.592c-12.89 72.42 33.305 141.987 103.21 155.35z"/></g></svg>