<svg width="300" height="300" viewBox="0 0 300 300"><path d="M123.378 90.487c.73-3.974.17-8.626 2.052-10.052 12.84-9.765 7.813-23.44 8.31-35.7.556-13.944.134-27.94.134-41.918 1.46-.03 2.922-.082 4.383-.117v18.174c0 11.413-.105 22.826.03 34.24.087 8.573-2.24 17.66 7.49 23.76 2.45 1.543 2.245 7.283 3.566 12.21 31.54 5.655 57.592 21.316 74.527 50.22 12.908 22.026 16.39 45.922 11.904 70.705-8.49 47.112-53.683 83.233-101.596 82.012-48.252-1.24-91.287-38.026-98.113-84.73-7.49-51.427 20.244-105.37 87.313-118.805zm-9.256 120.67H154.9v-40.505h-40.778v40.505zm83.27-37.43c-12.618-1.205-24.135-2.31-36.075-3.45v41.475c12.283-1.204 23.76-2.326 36.074-3.513v-34.514zm-41.78-9.036c-1.003-10.43-1.395-19.325-2.99-28.003-.44-2.465-4.21-5.81-6.757-6.117-7.187-.848-14.608-.883-21.774-.048-2.633.304-6.538 3.682-6.964 6.165-1.56 8.93-1.883 18.052-2.752 28.004h41.24zm1.853 87.893c34.526-5.266 34.596-2.513 38.483-38.926-11.635 1.134-23.078 2.273-34.835 3.43-1.222 11.87-2.374 22.996-3.648 35.496zm-81.93-38.944c5.195 34.677 5.843 35.343 36.478 38.295-1.152-11.752-2.256-23.248-3.43-35.122-11.244-1.087-21.6-2.07-33.048-3.174zm81.843-81.118l3.752 32.526c11.922 1.017 23.083 1.987 34.46 2.956-3.48-31.743-3.733-32.1-38.212-35.482zm-45.09-.73c-30.54 3.178-37.145 10.36-34.205 36.278 10.274-1.087 20.53-2.174 30.704-3.244 1.222-11.635 2.296-21.687 3.5-33.035zm6.825-6.91h30.978c-1.203-21.808-2.494-23.847-14.773-23.795-13.943.07-15.456 2.226-16.204 23.796zm-50 50.73c-24.49 2.362-25.696 3.43-23.71 20.618.92 7.913 9.358 10.97 23.71 8.357v-28.974zm156.674 3.6c-7.47-1.425-14.774-2.803-22.383-4.247v29.996c22.23 2.55 24.713-.156 22.383-25.747zm-106.435 80.81c3.057 23.282 3.857 24.352 19.752 22.62 15.47-1.664 6.913-14.672 12.84-22.62H119.35zm66.27-6.335c-29.722 3.226-32.913 5.926-31.622 26.865 20.735-3.14 24.76-6.552 31.622-26.865zM85.64 131.81c28.564-3.04 32.864-6.997 30.112-27.514-17.29 1.156-26.613 11.178-30.113 27.513zm68.173-28.093c-.222 22.1 6.69 27.653 31.213 25.9-3.326-16.608-14.196-24.352-31.213-25.9zM223.63 208.83c-23.3 3.91-24.795 5.88-25.73 32.66 20.296-6.468 25.257-12.6 25.73-32.66zm.205-36.29c-.952-17.327-10.53-25.888-25.713-29.536 4.095 30.044.56 26.9 25.713 29.535zM61.113 138.347c.852.835 1.7 1.665 2.53 2.5 11.57-3.074 20.774-8.426 21.196-24.918-8.866 8.374-16.288 15.387-23.727 22.418zm150.496 105.4c-15.527 2.04-21.758 9.378-21.523 22.826 6.522-6.91 13.043-13.822 21.522-22.826zm-150 2.378c6.773 6.678 13.55 13.37 22.62 22.3-1.665-16.304-9.104-22.33-22.62-22.3zM205.086 142.29c1.41-1.225 2.8-2.43 4.21-3.65-6.336-7.118-12.688-14.236-19.036-21.35-1.53 1.493-3.06 2.988-4.603 4.5 6.486 6.845 12.956 13.67 19.43 20.5zm-58.304-56.947c-5.505-3.278-8.48-6.452-10.922-6.095-2.53.37-4.57 4.16-6.825 6.452 2.24 1.783 4.43 4.926 6.74 5.01 2.7.086 5.486-2.514 11.008-5.367zm78.974 40.744c-1.835-14.03-8.24-22.23-22.81-23.726 15.15-.086 20.788-8.456 21.518-24.525 6.096 20.57 6.096 20.57 25.187 24.952-15.356 2.596-25.695 7.065-23.895 23.3zM61.422 65.83c-1.835-14.03-8.24-22.234-22.81-23.708 15.15-.087 20.788-8.46 21.518-24.526C66.226 38.16 66.226 38.16 85.3 42.543 69.965 45.126 59.622 49.59 61.422 65.83zM37.678 299.543c-1.835-14.047-8.22-22.234-22.808-23.713 15.147-.082 20.787-8.456 21.517-24.52 6.096 20.564 6.096 20.564 25.17 24.947-15.335 2.582-25.66 7.047-23.88 23.286zm222.757-34.7c-1.835-14.043-8.235-22.23-22.826-23.726 15.15-.082 20.786-8.44 21.516-24.526 6.1 20.588 6.1 20.588 25.187 24.953-15.335 2.614-25.678 7.066-23.878 23.3z" fill-rule="evenodd"/></svg>