<svg width="300" height="300" viewBox="0 0 300 300"><g fill-rule="evenodd"><path d="M150 0L0 62.5V75l150-50 150 50V62.5M37.5 175h-25v125h25v-25h225v25h25v-50h-250"/><path d="M87.5 181.248c0 25-37.5 25-37.5 0s37.5-25 37.5 0"/><path d="M100 187.5v25H75c-6.908 0-12.5 5.592-12.5 12.5s5.592 12.5 12.5 12.5h187.5v-18.748c0-10.316-10.344-23.172-22.968-28.596L198 172.36c-12.64-5.424-34.22-9.844-47.968-9.844h-25C111.248 162.5 100 173.752 100 187.5zm12.5-87.5c0 20.704 16.78 37.5 37.5 37.5 18.42 0 33.672-13.312 36.828-30.844-5.108 3.64-11.328 5.844-18.076 5.844-17.268 0-31.252-14-31.252-31.252 0-6.748 2.204-12.968 5.844-18.076C125.812 66.328 112.5 81.58 112.5 100z"/></g></svg>