<svg width="300" height="300" viewBox="0 0 300 300"><g fill-rule="evenodd"><path d="M270.904 40.643C243.97 16.543 209.222 3.26 173.078 3.26 92.17 3.26 26.338 69.09 26.338 150c0 80.91 65.832 146.74 146.74 146.74 33.457 0 65.013-11.005 91.205-31.827 2.817-2.243 3.717-6.13 2.156-9.378-1.566-3.244-5.166-4.992-8.662-4.192-7.44 1.68-15.017 2.53-22.504 2.53-49.34 0-91.544-35.173-100.374-83.612-.765-4.195-4.79-6.96-8.987-6.217-4.19.766-6.978 4.792-6.213 8.987 9.748 53.548 54.91 93.005 108.73 96.092-17.156 8.035-35.904 12.195-55.352 12.195-72.4 0-131.282-58.9-131.282-131.282 0-72.405 58.9-131.318 131.282-131.318 21.892 0 43.21 5.435 62.16 15.64-33.525.017-65.52 14.386-87.803 39.456-2.822 3.19-2.548 8.065.643 10.9 3.18 2.84 8.07 2.548 10.905-.643 19.36-21.792 47.165-34.274 76.29-34.274 9.544 0 19.088 1.36 28.327 4.026 3.465 1 7.152-.526 8.9-3.687 1.752-3.14 1.087-7.083-1.596-9.492z"/><path d="M153.6 179.652c1.187 2.887 4.01 4.774 7.13 4.774h43.26c4.262 0 7.727-3.465 7.727-7.726 0-4.265-3.465-7.713-7.726-7.713H179.38l26.97-26.97c2.21-2.208 2.874-5.534 1.682-8.42-1.187-2.893-4.008-4.775-7.13-4.775h-40.187c-4.26 0-7.71 3.465-7.71 7.726 0 4.265 3.467 7.73 7.71 7.73h21.522l-26.974 26.97c-2.203 2.21-2.87 5.517-1.66 8.404zm109.07 12.926h-18.413l21.23-21.23c2.21-2.21 2.87-5.535 1.665-8.422-1.19-2.887-4.01-4.774-7.135-4.774H225.61c-4.262 0-7.727 3.465-7.727 7.726 0 4.265 3.465 7.73 7.726 7.73h15.777l-21.23 21.244c-2.21 2.21-2.87 5.522-1.68 8.41 1.188 2.886 4.006 4.773 7.132 4.773h37.077c4.26 0 7.726-3.465 7.726-7.73 0-4.262-3.483-7.727-7.743-7.727zM76.357 151.852c1.186 2.887 4.008 4.77 7.134 4.77h58.697c4.278 0 7.726-3.46 7.726-7.726 0-4.26-3.465-7.726-7.726-7.726H102.14l41.32-41.322c2.205-2.21 2.87-5.54 1.662-8.426-1.187-2.887-4.005-4.77-7.13-4.77h-54.5c-4.266 0-7.714 3.465-7.714 7.726 0 4.265 3.465 7.726 7.713 7.726h35.853l-41.304 41.34c-2.21 2.19-2.87 5.52-1.683 8.408z"/></g></svg>