<svg width="300" height="300" viewBox="0 0 300 300"><path fill-rule="evenodd" d="M63.28 85.296c-.484 4.376-.78 9.452-.78 14.592 0 76 61.608 137.612 137.608 137.612 5.14 0 10.204-.284 15.188-.828-20.468 23.716-50.048 38.64-83.124 38.64-59.376 0-107.5-48.124-107.5-107.5 0-33.08 14.936-62.656 38.42-82.376l.188-.14zm43.14-47.704C45.296 50.188 0 103.56 0 167.5 0 240.672 59.328 300 132.5 300c63.952 0 117.312-45.296 129.764-105.564-17.372 10.952-38.968 17.984-62.184 17.984-62.144 0-112.5-50.36-112.5-112.5 0-23.216 7.028-44.812 19.092-62.732l-.252.404z"/></svg>