<svg width="512" height="512" viewBox="0 0 512 512" xmlns="http://www.w3.org/2000/svg"><title>Artboard</title><g fill="none" fill-rule="evenodd"><path stroke="#FFAB40" stroke-width="10" fill="#FFF" d="M87.072 86.713h338.856v339.214H87.072z"/><path d="M353.322 256.32c.006 34.63-18.448 66.634-48.407 83.95-29.96 17.318-66.87 17.318-96.83 0-29.96-17.316-48.413-49.32-48.407-83.95-.006-34.63 18.448-66.634 48.407-83.95 29.96-17.318 66.87-17.318 96.83 0 29.96 17.316 48.413 49.32 48.407 83.95z" stroke="#FFAB40" stroke-width="10.106" fill="#FFF"/><path d="M227.03 268.128c-4.21 2.436-9.402 2.436-13.613 0-4.212-2.437-6.803-6.94-6.797-11.808-.006-4.87 2.585-9.37 6.797-11.807 4.21-2.436 9.402-2.436 13.613 0 4.21 2.436 6.803 6.938 6.797 11.807.006 4.87-2.586 9.37-6.797 11.808zM306.38 256.32c.006 4.87-2.585 9.37-6.797 11.808-4.21 2.436-9.402 2.436-13.613 0-4.21-2.437-6.803-6.94-6.797-11.808-.006-4.87 2.586-9.37 6.797-11.807 4.21-2.436 9.402-2.436 13.613 0 4.212 2.436 6.803 6.938 6.797 11.807zM249.245 156.454h14.51v32.683h-14.51zM249.245 323.503h14.51v32.683h-14.51z" fill="#FFAB40"/></g></svg>