<svg width="300" height="300" viewBox="0 0 300 300"><g fill-rule="evenodd"><path d="M175 162.5c-6.892 0-12.5-5.592-12.5-12.5s5.608-12.5 12.5-12.5c6.908 0 12.5 5.592 12.5 12.5s-5.592 12.5-12.5 12.5m-50 0c-6.892 0-12.5-5.592-12.5-12.5s5.608-12.5 12.5-12.5c6.908 0 12.5 5.592 12.5 12.5s-5.592 12.5-12.5 12.5m25-75c-34.452 0-62.5 28.032-62.5 62.5s28.048 62.5 62.5 62.5c34.468 0 62.5-28.032 62.5-62.5S184.468 87.5 150 87.5"/><path d="M150 237.5c-48.236 0-87.5-39.252-87.5-87.5s39.264-87.5 87.5-87.5c48.248 0 87.5 39.252 87.5 87.5s-39.252 87.5-87.5 87.5M262.5 0h-225C16.828 0 0 16.828 0 37.5v225C0 283.172 16.828 300 37.5 300h225c20.688 0 37.5-16.828 37.5-37.5v-225C300 16.828 283.188 0 262.5 0"/></g></svg>