<svg width="300" height="300" viewBox="0 0 300 300"><g fill-rule="evenodd"><path d="M239.887 3.26H60.543c-13.487 0-24.456 10.97-24.456 24.457v244.56c0 13.487 10.97 24.456 24.456 24.456h179.344c13.487 0 24.456-10.97 24.456-24.456V27.717c0-13.487-10.97-24.456-24.456-24.456zm8.152 269.017c0 4.5-3.653 8.152-8.153 8.152H60.543c-4.5 0-8.152-3.653-8.152-8.153V27.717c0-4.5 3.653-8.152 8.153-8.152h179.344c4.5 0 8.152 3.652 8.152 8.152v244.56z"/><path d="M150.215 117.39c-40.456 0-73.368 32.91-73.368 73.367 0 40.456 32.912 73.368 73.368 73.368 40.456 0 73.368-32.912 73.368-73.368 0-40.456-32.912-73.368-73.368-73.368zm0 130.43c-31.47 0-57.064-25.594-57.064-57.063 0-31.47 25.596-57.064 57.065-57.064 31.47 0 57.064 25.595 57.064 57.064 0 31.47-25.596 57.064-57.065 57.064zm0-146.735c17.987 0 32.608-14.622 32.608-32.608 0-17.987-14.62-32.608-32.608-32.608-17.987 0-32.608 14.62-32.608 32.607 0 17.986 14.62 32.608 32.608 32.608zm0-48.912c8.982 0 16.304 7.32 16.304 16.304 0 8.982-7.323 16.304-16.305 16.304s-16.304-7.32-16.304-16.303 7.323-16.304 16.305-16.304z"/><path d="M150.215 174.453c-8.982 0-16.304 7.32-16.304 16.304 0 8.982 7.323 16.304 16.305 16.304s16.304-7.32 16.304-16.303-7.323-16.304-16.305-16.304zM85 44.02c0 10.87-16.305 10.87-16.305 0S85 33.15 85 44.02m146.735 0c0 10.87-16.304 10.87-16.304 0s16.305-10.87 16.305 0m0 211.953c0 10.87-16.304 10.87-16.304 0s16.305-10.87 16.305 0m-146.736 0c0 10.87-16.305 10.87-16.305 0s16.304-10.87 16.304 0"/></g></svg>