<svg width="300" height="300" viewBox="0 0 300 300"><path fill-rule="evenodd" d="M295.73 184.88c.993-.99 1.794-2.124 2.434-3.404 9.41-18.803-18.114-68.19-64.97-114.89-46.837-46.698-96.4-74.135-115.25-64.756-1.636 1.33-3.24 2.703-4.825 4.123-1.798 1.6-3.56 3.26-5.29 4.986-35.923 35.787-46.745 86.995-32.35 131.553-1.41.703-2.724 1.615-3.877 2.78l-21.195 21.122c-4.116 4.107-6.156 10.688-5.672 16.774-.336.29-.673.576-.997.878l-22.246 22.177c-5.55 5.53-7.568 15.608-4.794 23.007l-12.023 12c-5.835 5.816-6.266 14.872-.977 20.144 5.29 5.276 14.38 4.843 20.21-.974l5.07-5.047c3.716 5.943 10.098 12.19 16.01 15.575l-5.256 5.244c-5.835 5.816-6.266 14.872-.977 20.144 5.29 5.272 14.38 4.826 20.21-.974l12.283-12.237c7.325 2.43 16.99.4 22.377-4.97l22.25-22.176c.32-.318.624-.67.91-1.006 6.095.512 12.68-1.517 16.8-5.623l21.192-21.12c1.25-1.248 2.21-2.668 2.933-4.185 44.545 14.025 95.602 3.162 131.333-32.467 1.73-1.726 3.38-3.48 5.002-5.272.59-.43 1.17-.896 1.682-1.407zM124.084 15.715c15.13-6.712 57.914 18.933 99.542 60.423 41.63 41.493 67.356 84.137 60.627 99.217-1.01 1.28-2.07 2.54-3.16 3.77-13.735 9.11-57.947-16.838-100.92-59.674-42.978-42.848-69.01-86.898-59.872-100.604 1.232-1.09 2.5-2.128 3.784-3.134z"/></svg>