<svg width="300" height="300" viewBox="0 0 300 300"><path d="M173.5 3.22c-.705-1.787-2.867-2.868-4.652-2.868h-37.5c-2.138 0-3.924 1.08-4.648 2.867L87.786 82.142c-1.786 3.57.704 7.495 4.652 7.495H207.8c3.924 0 6.438-3.924 4.652-7.495L173.5 3.22zm15.72 280.71h-25c-2.868 0-5.358-2.492-5.358-5.36V100.353c0-2.862-2.495-5.357-5.357-5.357h-5.357c-2.867 0-5.358 2.495-5.358 5.357v178.22c0 2.866-2.495 5.357-5.357 5.357h-25c-1.433 0-3.22.703-3.923 1.784-5.358 6.438-.71 13.934 5.71 13.934h73.213c6.434 0 10.715-7.143 5.71-13.934-1.08-1.08-2.49-1.785-3.924-1.785z" fill-rule="evenodd"/></svg>