<svg width="300" height="300" viewBox="0 0 300 300"><g fill-rule="evenodd"><path d="M149.49 295.538c-31.594 0-57.445-25.857-57.445-57.447 0-13.888 3.836-26.8 11.49-35.903 4.786-5.738 12.918-6.708 18.676-2.393 5.74 4.787 6.71 12.912 2.394 18.676-3.836 4.787-5.732 11.49-5.732 19.15 0 16.754 13.41 30.165 30.166 30.165s30.173-13.41 30.173-30.166c0-4.788-2.393-11.97-6.236-18.205-3.836-6.236-2.393-14.362 3.843-18.677 6.23-3.836 14.362-2.393 18.677 3.843 3.338 4.788 10.52 18.2 10.52 32.56.42 33.013-24.933 58.398-56.523 58.398z"/><path d="M149.49 254.847c-7.658 0-13.416-6.236-13.416-13.417V134.694c0-7.66 6.237-13.417 13.417-13.417 7.655 0 13.412 6.236 13.412 13.417v106.76c-.025 7.157-6.23 13.393-13.41 13.393zm34.93-30.645c-7.654 0-13.41-6.236-13.41-13.417V58.57c0-7.653 6.228-13.417 13.41-13.417 7.18 0 13.416 6.236 13.416 13.417v152.24c0 7.156-5.764 13.392-13.417 13.392zm-70.36 0c-7.654 0-13.417-6.236-13.417-13.417V58.57c0-7.653 6.236-13.417 13.417-13.417 7.18 0 13.41 6.236 13.41 13.417v152.24c-.025 7.156-6.23 13.392-13.41 13.392z"/><path d="M184.42 68.145c-7.654 0-13.41-6.236-13.41-13.417 0-12.44-10.055-23.464-22.023-23.464s-22.015 10.525-22.015 23.464c0 7.653-6.23 13.417-13.41 13.417s-13.417-6.236-13.417-13.417c0-27.773 22.015-50.266 48.823-50.266 26.802 0 48.817 22.493 48.817 50.266.05 7.18-5.713 13.417-13.366 13.417z"/></g></svg>