<svg width="300" height="300" viewBox="0 0 300 300"><path fill-rule="evenodd" d="M150 15C75.452 15 15 75.452 15 150s60.452 135 135 135 135-60.452 135-135S224.548 15 150 15zm0 .876c74.08 0 134.124 60.044 134.124 134.124S224.08 284.124 150 284.124 15.876 224.08 15.876 150 75.92 15.876 150 15.876zm0 10.264C81.592 26.14 26.14 81.592 26.14 150S81.592 273.86 150 273.86 273.86 218.408 273.86 150 218.408 26.14 150 26.14zm-2.516 54.94h4.22l-.656 19.92h-2.908l-.656-19.92zm-2.204.14l.956 13.748-.876.064-.952-13.752.872-.06zm8.628 0l.872.06-.968 13.752-.876-.064.972-13.748zm-11 .188l1.452 13.7-.876.096-1.436-13.704.86-.092zm13.372 0l.86.092-1.436 13.704-.876-.096 1.452-13.7zm-15.732.28l1.92 13.656-.86.108-1.904-13.64.86-.124h-.016zm18.092 0l.86.124-1.92 13.64-.86-.108 1.92-13.656zm-20.436.36l2.388 13.576-.856.156-2.392-13.576.86-.14v-.016zm22.796 0l.86.14-2.392 13.576-.86-.156 2.408-13.576-.016.016zm-25.124.436l2.86 13.484-.86.188-2.86-13.484.86-.188zm27.452 0l.86.188-2.86 13.484-.86-.188 2.876-13.484h-.016zm-29.78.516l3.328 13.376-.844.204-3.344-13.376.86-.22V83zm32.092 0l.844.22-3.328 13.372-.844-.2 3.328-13.376V83zm-34.392.608l3.8 13.252-.844.232-3.796-13.248.84-.236zm36.704 0l.844.236L165 97.092l-.844-.232 3.796-13.252zm-38.968.688l4.264 13.112-.84.264-4.268-13.092.844-.284zm41.252 0l.828.284-4.268 13.092-.828-.264 4.268-13.112zm-43.5.768l4.716 12.952-.828.296-4.704-12.952.816-.296zm45.748 0l.828.296-4.72 12.952-.812-.296 4.704-12.952zm-47.984.828l5.156 12.78-.796.328-5.172-12.78.812-.328zm50.204 0l.812.328L170.36 99l-.812-.328 5.172-12.78h-.016zm-52.392.92l5.608 12.596-.796.356-5.608-12.592.796-.36zm54.58 0l.796.36-5.608 12.592-.8-.356 5.596-12.596h.016zm-56.752.984l6.048 12.392-.78.392-6.048-12.392.78-.392zm58.924 0l.78.392-6.048 12.392-.78-.392 6.048-12.392zm-61.048 1.064l6.468 12.172-.78.404-6.468-12.172.78-.404zm63.172 0l.764.404-6.468 12.172-.78-.404 6.468-12.172h.016zM115.936 90l6.892 11.936-.764.44-6.892-11.94.764-.436zm67.328 0l.768.436-6.892 11.94-.748-.44L183.28 90h-.016zm-69.372 1.22l7.296 11.688-.736.468-7.312-11.688.752-.468zm71.436 0l.736.468-7.312 11.688-.736-.468 7.312-11.688zm-73.436 1.28l7.7 11.42-.716.488-7.704-11.424.72-.484zm75.436 0l.72.484-7.704 11.424-.72-.488 7.72-11.42h-.016zm-77.392 1.36l8.096 11.156-.72.516-8.092-11.156.716-.516zm79.344 0l.704.516-8.092 11.156-.72-.516 8.108-11.156zm-81.248 1.42l8.484 10.86-.688.548-8.5-10.86.688-.548h.016zm83.156 0l.688.548-8.484 10.86-.688-.548 8.484-10.86zm-85.016 1.484l8.86 10.564-.672.564-8.86-10.564.672-.564zm86.86 0l.672.564-8.86 10.564-.672-.564 8.86-10.564zm-88.672 1.548l9.232 10.236-.656.576-9.216-10.232.656-.58h-.016zm90.484 0l.656.58-9.236 10.232-.656-.576 9.236-10.236zm-92.236 1.608l9.58 9.924-.64.608-9.58-9.92.624-.612h.016zm93.984 0l.628.612-9.58 9.92-.624-.608 9.576-9.924zm-95.672 1.672l9.924 9.564-.608.64-9.924-9.576.608-.628zm97.36 0l.612.628-9.924 9.576-.608-.64 9.92-9.564zm-98.984 1.72l10.252 9.22-.596.656-10.232-9.22.576-.656zm100.612 0l.592.656-10.236 9.22-.592-.656 10.236-9.22zm-102.188 1.78l10.56 8.86-.56.672-10.564-8.86.564-.672zm103.764 0l.564.672-10.564 8.86-.564-.672 10.564-8.86zm-105.28 1.844l10.86 8.484-.548.688-10.86-8.484.532-.688h.016zm106.78 0l.548.688-10.876 8.484-.532-.688 10.86-8.484zm-108.22 1.892l11.156 8.092-.512.704-11.16-8.108.516-.704v.016zm109.672 0l.516.704-11.156 8.108-.516-.704 11.156-8.092v-.016zm-111.044 1.936l11.42 7.704-.484.736-11.42-7.72.484-.72zm112.42 0l.484.72-11.42 7.72-.484-.736 11.42-7.704zM92.08 112.752l11.684 7.296-.468.748-11.688-7.312.472-.748v.016zm115.028 0l.472.748-11.688 7.312-.472-.748 11.688-7.3v-.012zM90.844 114.78l11.936 6.892-.436.748-11.936-6.888.436-.768v.016zm117.5 0l.436.768-11.936 6.888-.436-.748 11.936-6.892v-.016zm-118.672 2.064l12.172 6.484-.408.78-12.172-6.484.408-.764v-.016zm119.828 0l.42.764-12.168 6.484-.408-.78 12.172-6.484-.016.016zm-120.936 2.108l12.388 6.032-.388.796-12.392-6.044.392-.784zm122.016 0l.388.784-12.388 6.044-.392-.796 12.392-6.032zm-34.188 1.656c1.188 48.08-33.736 54.984-50.844 41.376 5.968-7.172 12.64-12.264 21.764-15.608 6.564-2.392 12.484-3.596 18.596-10.624-8.924 6.06-16.112 6.512-21.408 8.184-7.892 2.484-14.124 5.828-20.828 13.736-.64-9.952 2.892-17.78 7.032-22.328 4.14-4.548 9.732-6.72 18.048-8.22 8.296-1.5 20.156 1.204 27.668-6.532l-.028.016zm-88.844.484l12.592 5.612-.36.796-12.592-5.608.36-.8zm124.06 0l.36.8-12.592 5.608-.36-.796 12.592-5.612zm-125 2.188l12.784 5.156-.328.812-12.784-5.156.328-.812zm125.94 0l.328.812-12.784 5.156-.328-.812 12.784-5.156zm-126.812 2.204l12.952 4.72-.296.812-12.956-4.704.3-.828zm127.684 0l.3.828-12.956 4.704-.312-.812 12.968-4.72zm-128.468 2.252L98.064 132l-.268.828-13.108-4.264.264-.828zm129.252 0l.28.828-13.108 4.264-.284-.828 13.112-4.264zM84.236 130l13.264 3.796-.252.844L84 130.844l.236-.844zm130.684 0l.236.844-13.248 3.796-.236-.844L214.92 130zm-131.312 2.296l13.376 3.328-.204.844-13.372-3.328.2-.844zm131.94 0l.204.844-13.392 3.328-.204-.844 13.392-3.328zm-132.484 2.312l13.484 2.876-.188.86-13.484-2.876.188-.86zm133.028 0l.188.86-13.484 2.876-.188-.86 13.484-2.876zm-133.5 2.328l13.58 2.392-.156.86-13.58-2.392.144-.86h.012zm133.972 0l.156.86-13.58 2.392-.156-.86 13.58-2.392zm-134.36 2.344l13.656 1.924-.124.876-13.656-1.924.124-.876zm134.748 0l.128.876-13.66 1.924-.124-.876 13.656-1.924zm-135.044 2.36l13.7 1.452-.092.86-13.72-1.436.112-.876zm135.34 0l.096.876-13.704 1.436-.092-.86 13.7-1.452zm-135.576 2.376l13.748.952-.044.876-13.768-.952.064-.876zm135.796 0l.064.876-13.752.952-.06-.876 13.748-.952zm-135.936 2.376l13.764.484-.032.876-13.78-.472.032-.872.016-.016zm136.076 0l.032.872-13.78.472-.032-.876 13.78-.484v.016zm-136.124 2.372h13.78v.876h-13.78v-.876zm122.408 0h13.796v.876h-13.796v-.876zM95.28 150.656l.032.876-13.764.484-.032-.876 13.78-.484h-.016zm108.58 0l13.78.484-.032.876-13.78-.484.032-.876zm-108.5 1.908l.048.872-13.752.956-.064-.876 13.768-.952zm108.42 0l13.752.952-.064.876-13.748-.956.06-.872zM95.5 154.452l.092.876-13.7 1.436-.096-.872 13.704-1.44zm108.124 0l13.704 1.44-.092.872-13.704-1.436.092-.876zM95.72 156.344l.124.86-13.656 1.904-.124-.86 13.656-1.904zm107.688 0l13.656 1.904-.128.86-13.656-1.904.128-.86zM96 158.22l.156.86-13.576 2.388-.144-.86 13.58-2.388H96zm107.124 0l13.58 2.388-.156.86-13.58-2.388.14-.86h.016zM96.36 160.08l.172.856-13.484 2.876-.172-.86 13.484-2.872zm106.42 0l13.484 2.872-.184.86-13.488-2.876.172-.856h.016zm-106.016 1.84l.204.86-13.376 3.344-.216-.86 13.388-3.344zm105.612 0l13.376 3.344-.204.86-13.376-3.344.204-.86zm-105.14 1.844l.248.844-13.248 3.8-.236-.844 13.248-3.8h-.012zm104.656 0l13.248 3.8-.232.844-13.252-3.8.236-.844zM97.78 165.58l.268.828-13.112 4.264-.264-.844 13.108-4.264v.016zm103.564 0l13.108 4.264-.264.844-13.108-4.268.264-.828v-.012zm-102.968 1.796l.296.828-12.952 4.716-.3-.812 12.956-4.716v-.016zm102.376 0l12.952 4.716-.296.816-12.956-4.72.3-.828v.016zM99.048 169.14l.328.812-12.784 5.172-.328-.812 12.784-5.172zm101.032 0l12.78 5.172-.328.812-12.78-5.172.328-.812zm-100.316 1.768l.344.796-12.592 5.608-.36-.796 12.596-5.608h.012zm99.58 0l12.592 5.608-.356.796-12.596-5.608.344-.796h.016zm-98.796 1.716l.372.784-12.388 6.044-.376-.796 12.392-6.048v.016zm98.016 0l12.388 6.048-.388.78-12.392-6.044.392-.784zm-97.156 1.704l.404.78-12.172 6.472-.404-.784 12.172-6.468zm96.312 0l12.172 6.468-.408.784-12.172-6.472.408-.78zm-95.424 1.656l.44.768-11.94 6.888-.436-.764 11.936-6.892zm94.5 0l11.94 6.892-.44.764-11.936-6.888.436-.768zm-93.548 1.624l.472.752-11.688 7.312-.468-.752 11.684-7.312zm92.58 0l11.688 7.312-.452.752-11.688-7.312.468-.752h-.016zm-91.564 1.612l.488.716-11.424 7.704-.484-.732 11.42-7.704v.016zm90.532 0l11.44 7.7-.484.736-11.44-7.704.484-.716v-.016zm-89.452 1.56l.516.704-11.156 8.108-.516-.716 11.156-8.096zm88.392 0l11.156 8.096-.516.716-11.156-8.108.516-.704zm-87.268 1.516l.532.688-10.86 8.484-.548-.688 10.876-8.484zm86.124 0l10.876 8.484-.548.688-10.856-8.484.528-.688zm-84.952 1.484l.564.672-10.564 8.86-.56-.672 10.56-8.86zm83.768 0l10.56 8.86-.56.672-10.564-8.86.564-.672zm-82.532 1.44l.592.64-10.248 9.232-.58-.656 10.236-9.232v.016zm81.312 0l10.232 9.232-.576.656-10.252-9.232.596-.64v-.016zm-80.032 1.388l.608.628-9.92 9.576-.608-.624 9.92-9.58zm78.752 0l9.92 9.58-.608.624-9.924-9.576.612-.628zm-77.424 1.36l.64.612-9.576 9.92-.628-.608 9.564-9.908v-.016zm76.096 0l9.576 9.908-.624.608-9.58-9.92.628-.612v.016zm-74.72 1.296l.656.596-9.236 10.232-.64-.576 9.22-10.252zm73.328 0l9.232 10.252-.656.576-9.232-10.232.656-.596zm-71.908 1.252l.672.564-8.86 10.56-.672-.56 8.86-10.564zm70.484 0l8.86 10.564-.672.56-8.86-10.56.672-.564zm-69.012 1.204l.684.544-8.484 10.86-.688-.532 8.488-10.856v-.016zm67.56 0l8.484 10.86-.688.528-8.484-10.86.688-.544v.016zm-66.064 1.156l.72.516-8.108 11.156-.72-.516 8.096-11.156h.012zm64.564 0l8.108 11.156-.7.516-8.112-11.156.704-.516z"/></svg>