<svg width="300" height="300" viewBox="0 0 300 300"><g fill-rule="evenodd"><path d="M298.828 57.952H178.296c-1.532-7.372-6.436-13.468-13-16.748L205.78 8.688l-5.968-7.516-46.704 37.5h-5.92l-36.5-36.624-6.796 6.796 31.7 31.812c-7.092 3.108-12.356 9.5-13.936 17.22H1.172v202.372h53.736l-24.032 38.564h29.828l38.376-38.564h101.656l38.372 38.564h29.828l-24.028-38.564h53.92V57.952zm-153.64-9.672h9.608c6.268 0 11.596 4.048 13.596 9.612h-36.736c1.936-5.564 7.264-9.612 13.532-9.612zM56.78 289.22h-8.56l17.984-28.892h19.344L56.78 289.22zm195 0h-8.56l-28.828-28.892h19.344l18.044 28.892zm37.44-38.564H10.78V67.564h278.44v183.092z"/><path d="M44.36 241h163.248c13.252 0 24.032-10.78 24.032-24.08V101.312c0-13.296-10.78-24.076-24.032-24.076H44.36c-13.252 0-24.032 10.78-24.032 24.076V216.92C20.392 230.22 31.172 241 44.36 241zM30 101.312c0-7.968 6.436-14.468 14.408-14.468h163.248c7.968 0 14.408 6.5 14.408 14.468V216.92c0 7.972-6.44 14.472-14.408 14.472H44.36c-7.968 0-14.408-6.5-14.408-14.472V101.312H30zm230.452 24.08c10.612 0 19.22-8.672 19.22-19.284 0-10.608-8.608-19.28-19.22-19.28-10.608 0-19.216 8.672-19.216 19.28 0 10.612 8.608 19.284 19.216 19.284zm0-28.956c5.284 0 9.612 4.344 9.612 9.612 0 5.328-4.284 9.608-9.612 9.608-5.28 0-9.608-4.344-9.608-9.608 0-5.268 4.28-9.612 9.608-9.612zm0 77.128c10.612 0 19.22-8.672 19.22-19.284 0-10.608-8.608-19.28-19.22-19.28-10.608 0-19.216 8.672-19.216 19.28 0 10.656 8.608 19.284 19.216 19.284zm0-28.892c5.284 0 9.612 4.344 9.612 9.608 0 5.328-4.284 9.612-9.612 9.612-5.28 0-9.608-4.344-9.608-9.612 0-5.28 4.28-9.608 9.608-9.608zM241.236 192.828h9.608v-9.608h-9.608M255.64 192.828h9.608v-9.608h-9.608M270 192.828h9.608v-9.608H270M241.236 212.044h9.608v-9.608h-9.608M255.64 212.044h9.608v-9.608h-9.608M270 212.044h9.608v-9.608H270M241.236 231.328h9.608v-9.608h-9.608M255.64 231.328h9.608v-9.608h-9.608M270 231.328h9.608v-9.608H270"/></g></svg>