<svg width="300" height="300" viewBox="0 0 300 300"><g fill-rule="evenodd"><path d="M146.44 270.742c-1.79-.695-3.593-1.37-5.37-2.112-12.642-5.305-19.657-19.318-16.65-33.244 2.898-13.29 14.756-22.974 27.66-22.512 13.773.493 24.75 10.67 26.94 24.963 2.066 13.322-6.015 26.862-18.706 31.366-1.278.46-2.526 1.03-3.777 1.54H146.44zM300 113.59c-1.958 3.667-3.268 7.444-5.645 10.314-4.393 5.274-9.418 10.007-14.183 14.957-6.908 7.173-11.597 6.786-17.163-1.385-16.33-23.98-37.793-41.633-64.978-51.995-57.36-21.943-122.06-.88-157.524 51.146-.896 1.433-1.867 2.79-2.945 4.086-3.395 3.793-8.33 4.362-11.937.85-6.32-6.155-12.49-12.507-18.347-19.107-4.23-4.87-4.458-12.043-.59-17.194 28.915-39.118 66.74-65.068 115.03-72.64 71.733-11.24 129.123 14.602 173.425 71.208 2.064 2.62 3.067 6.09 4.855 9.76z"/><path d="M241.824 174.296c-1.852 3.438-3.162 7.2-5.566 10.038-4.812 5.657-10.192 10.824-15.375 16.145-5.35 5.486-10.5 5.21-15.126-.96-9.916-13.29-22.544-22.74-38.81-26.396-26.71-6-48.88 2.218-66.783 22.634-1.48 1.68-2.684 3.608-4.18 5.274-3.884 4.255-8.802 4.504-12.888.434-5.862-5.846-11.64-11.783-17.222-17.89-5.077-5.597-5.013-12.95-.063-18.718 24.533-28.512 55.508-42.79 93.178-40.476 32.2 2.005 58.334 16.654 78.857 41.356 1.772 2.144 2.45 5.18 3.98 8.558z"/></g></svg>